<svg width="38" height="38" viewBox="0 0 38 38" fill="none" xmlns="http://www.w3.org/2000/svg">
<rect x="14.4912" width="5.05446" height="4.28718" fill="#35A18A"/>
<rect x="14.4912" y="33.7129" width="5.05446" height="4.28718" fill="#35A18A"/>
<path fill-rule="evenodd" clip-rule="evenodd" d="M22.8717 16.7627L33.9988 16.6298C32.746 8.42114 25.656 2.13257 17.0971 2.13257C7.654 2.13257 -0.00115967 9.78773 -0.00115967 19.2309C-0.00115967 28.674 7.654 36.3291 17.0971 36.3291C25.6542 36.3291 32.743 30.0432 33.998 21.8371H22.8105C21.8206 24.0037 19.6345 25.5093 17.0968 25.5093C13.6292 25.5093 10.8182 22.6983 10.8182 19.2307C10.8182 15.7632 13.6292 12.9521 17.0968 12.9521C19.6882 12.9521 21.9129 14.5221 22.8717 16.7627Z" fill="#35A18A"/>
</svg>
