<svg width="1440" height="800" viewBox="0 0 1440 800" fill="none" xmlns="http://www.w3.org/2000/svg">
<g opacity="0.5">
<mask id="mask0_5433_35672" style="mask-type:alpha" maskUnits="userSpaceOnUse" x="240" y="0" width="960" height="960">
<rect width="960" height="960" transform="translate(240)" fill="url(#paint0_radial_5433_35672)"/>
</mask>
<g mask="url(#mask0_5433_35672)">
<g clip-path="url(#clip0_5433_35672)">
<mask id="path-3-inside-1_5433_35672" fill="white">
<path d="M240 0H304V64H240V0Z"/>
</mask>
<path d="M304 64V65H305V64H304ZM304 0H303V64H304H305V0H304ZM304 64V63H240V64V65H304V64Z" fill="#EBEBEB" mask="url(#path-3-inside-1_5433_35672)"/>
<mask id="path-5-inside-2_5433_35672" fill="white">
<path d="M304 0H368V64H304V0Z"/>
</mask>
<path d="M368 64V65H369V64H368ZM368 0H367V64H368H369V0H368ZM368 64V63H304V64V65H368V64Z" fill="#EBEBEB" mask="url(#path-5-inside-2_5433_35672)"/>
<mask id="path-7-inside-3_5433_35672" fill="white">
<path d="M368 0H432V64H368V0Z"/>
</mask>
<path d="M432 64V65H433V64H432ZM432 0H431V64H432H433V0H432ZM432 64V63H368V64V65H432V64Z" fill="#EBEBEB" mask="url(#path-7-inside-3_5433_35672)"/>
<mask id="path-9-inside-4_5433_35672" fill="white">
<path d="M432 0H496V64H432V0Z"/>
</mask>
<path d="M496 64V65H497V64H496ZM496 0H495V64H496H497V0H496ZM496 64V63H432V64V65H496V64Z" fill="#EBEBEB" mask="url(#path-9-inside-4_5433_35672)"/>
<mask id="path-11-inside-5_5433_35672" fill="white">
<path d="M496 0H560V64H496V0Z"/>
</mask>
<path d="M560 64V65H561V64H560ZM560 0H559V64H560H561V0H560ZM560 64V63H496V64V65H560V64Z" fill="#EBEBEB" mask="url(#path-11-inside-5_5433_35672)"/>
<mask id="path-13-inside-6_5433_35672" fill="white">
<path d="M560 0H624V64H560V0Z"/>
</mask>
<path d="M624 64V65H625V64H624ZM624 0H623V64H624H625V0H624ZM624 64V63H560V64V65H624V64Z" fill="#EBEBEB" mask="url(#path-13-inside-6_5433_35672)"/>
<mask id="path-15-inside-7_5433_35672" fill="white">
<path d="M624 0H688V64H624V0Z"/>
</mask>
<path d="M688 64V65H689V64H688ZM688 0H687V64H688H689V0H688ZM688 64V63H624V64V65H688V64Z" fill="#EBEBEB" mask="url(#path-15-inside-7_5433_35672)"/>
<mask id="path-17-inside-8_5433_35672" fill="white">
<path d="M688 0H752V64H688V0Z"/>
</mask>
<path d="M752 64V65H753V64H752ZM752 0H751V64H752H753V0H752ZM752 64V63H688V64V65H752V64Z" fill="#EBEBEB" mask="url(#path-17-inside-8_5433_35672)"/>
<mask id="path-19-inside-9_5433_35672" fill="white">
<path d="M752 0H816V64H752V0Z"/>
</mask>
<path d="M816 64V65H817V64H816ZM816 0H815V64H816H817V0H816ZM816 64V63H752V64V65H816V64Z" fill="#EBEBEB" mask="url(#path-19-inside-9_5433_35672)"/>
<mask id="path-21-inside-10_5433_35672" fill="white">
<path d="M816 0H880V64H816V0Z"/>
</mask>
<path d="M880 64V65H881V64H880ZM880 0H879V64H880H881V0H880ZM880 64V63H816V64V65H880V64Z" fill="#EBEBEB" mask="url(#path-21-inside-10_5433_35672)"/>
<mask id="path-23-inside-11_5433_35672" fill="white">
<path d="M880 0H944V64H880V0Z"/>
</mask>
<path d="M944 64V65H945V64H944ZM944 0H943V64H944H945V0H944ZM944 64V63H880V64V65H944V64Z" fill="#EBEBEB" mask="url(#path-23-inside-11_5433_35672)"/>
<mask id="path-25-inside-12_5433_35672" fill="white">
<path d="M944 0H1008V64H944V0Z"/>
</mask>
<path d="M1008 64V65H1009V64H1008ZM1008 0H1007V64H1008H1009V0H1008ZM1008 64V63H944V64V65H1008V64Z" fill="#EBEBEB" mask="url(#path-25-inside-12_5433_35672)"/>
<mask id="path-27-inside-13_5433_35672" fill="white">
<path d="M1008 0H1072V64H1008V0Z"/>
</mask>
<path d="M1072 64V65H1073V64H1072ZM1072 0H1071V64H1072H1073V0H1072ZM1072 64V63H1008V64V65H1072V64Z" fill="#EBEBEB" mask="url(#path-27-inside-13_5433_35672)"/>
<mask id="path-29-inside-14_5433_35672" fill="white">
<path d="M1072 0H1136V64H1072V0Z"/>
</mask>
<path d="M1136 64V65H1137V64H1136ZM1136 0H1135V64H1136H1137V0H1136ZM1136 64V63H1072V64V65H1136V64Z" fill="#EBEBEB" mask="url(#path-29-inside-14_5433_35672)"/>
<mask id="path-31-inside-15_5433_35672" fill="white">
<path d="M1136 0H1200V64H1136V0Z"/>
</mask>
<path d="M1200 64V65H1201V64H1200ZM1200 0H1199V64H1200H1201V0H1200ZM1200 64V63H1136V64V65H1200V64Z" fill="#EBEBEB" mask="url(#path-31-inside-15_5433_35672)"/>
<mask id="path-33-inside-16_5433_35672" fill="white">
<path d="M240 64H304V128H240V64Z"/>
</mask>
<path d="M304 128V129H305V128H304ZM304 64H303V128H304H305V64H304ZM304 128V127H240V128V129H304V128Z" fill="#EBEBEB" mask="url(#path-33-inside-16_5433_35672)"/>
<mask id="path-35-inside-17_5433_35672" fill="white">
<path d="M304 64H368V128H304V64Z"/>
</mask>
<path d="M368 128V129H369V128H368ZM368 64H367V128H368H369V64H368ZM368 128V127H304V128V129H368V128Z" fill="#EBEBEB" mask="url(#path-35-inside-17_5433_35672)"/>
<mask id="path-37-inside-18_5433_35672" fill="white">
<path d="M368 64H432V128H368V64Z"/>
</mask>
<path d="M368 64H432V128H368V64Z" fill="#E8F2EE" fill-opacity="0.5"/>
<path d="M432 128V129H433V128H432ZM432 64H431V128H432H433V64H432ZM432 128V127H368V128V129H432V128Z" fill="#EBEBEB" mask="url(#path-37-inside-18_5433_35672)"/>
<mask id="path-39-inside-19_5433_35672" fill="white">
<path d="M432 64H496V128H432V64Z"/>
</mask>
<path d="M496 128V129H497V128H496ZM496 64H495V128H496H497V64H496ZM496 128V127H432V128V129H496V128Z" fill="#EBEBEB" mask="url(#path-39-inside-19_5433_35672)"/>
<mask id="path-41-inside-20_5433_35672" fill="white">
<path d="M496 64H560V128H496V64Z"/>
</mask>
<path d="M560 128V129H561V128H560ZM560 64H559V128H560H561V64H560ZM560 128V127H496V128V129H560V128Z" fill="#EBEBEB" mask="url(#path-41-inside-20_5433_35672)"/>
<mask id="path-43-inside-21_5433_35672" fill="white">
<path d="M560 64H624V128H560V64Z"/>
</mask>
<path d="M624 128V129H625V128H624ZM624 64H623V128H624H625V64H624ZM624 128V127H560V128V129H624V128Z" fill="#EBEBEB" mask="url(#path-43-inside-21_5433_35672)"/>
<mask id="path-45-inside-22_5433_35672" fill="white">
<path d="M624 64H688V128H624V64Z"/>
</mask>
<path d="M688 128V129H689V128H688ZM688 64H687V128H688H689V64H688ZM688 128V127H624V128V129H688V128Z" fill="#EBEBEB" mask="url(#path-45-inside-22_5433_35672)"/>
<mask id="path-47-inside-23_5433_35672" fill="white">
<path d="M688 64H752V128H688V64Z"/>
</mask>
<path d="M752 128V129H753V128H752ZM752 64H751V128H752H753V64H752ZM752 128V127H688V128V129H752V128Z" fill="#EBEBEB" mask="url(#path-47-inside-23_5433_35672)"/>
<mask id="path-49-inside-24_5433_35672" fill="white">
<path d="M752 64H816V128H752V64Z"/>
</mask>
<path d="M816 128V129H817V128H816ZM816 64H815V128H816H817V64H816ZM816 128V127H752V128V129H816V128Z" fill="#EBEBEB" mask="url(#path-49-inside-24_5433_35672)"/>
<mask id="path-51-inside-25_5433_35672" fill="white">
<path d="M816 64H880V128H816V64Z"/>
</mask>
<path d="M880 128V129H881V128H880ZM880 64H879V128H880H881V64H880ZM880 128V127H816V128V129H880V128Z" fill="#EBEBEB" mask="url(#path-51-inside-25_5433_35672)"/>
<mask id="path-53-inside-26_5433_35672" fill="white">
<path d="M880 64H944V128H880V64Z"/>
</mask>
<path d="M944 128V129H945V128H944ZM944 64H943V128H944H945V64H944ZM944 128V127H880V128V129H944V128Z" fill="#EBEBEB" mask="url(#path-53-inside-26_5433_35672)"/>
<mask id="path-55-inside-27_5433_35672" fill="white">
<path d="M944 64H1008V128H944V64Z"/>
</mask>
<path d="M944 64H1008V128H944V64Z" fill="#E8F2EE" fill-opacity="0.5"/>
<path d="M1008 128V129H1009V128H1008ZM1008 64H1007V128H1008H1009V64H1008ZM1008 128V127H944V128V129H1008V128Z" fill="#EBEBEB" mask="url(#path-55-inside-27_5433_35672)"/>
<mask id="path-57-inside-28_5433_35672" fill="white">
<path d="M1008 64H1072V128H1008V64Z"/>
</mask>
<path d="M1072 128V129H1073V128H1072ZM1072 64H1071V128H1072H1073V64H1072ZM1072 128V127H1008V128V129H1072V128Z" fill="#EBEBEB" mask="url(#path-57-inside-28_5433_35672)"/>
<mask id="path-59-inside-29_5433_35672" fill="white">
<path d="M1072 64H1136V128H1072V64Z"/>
</mask>
<path d="M1136 128V129H1137V128H1136ZM1136 64H1135V128H1136H1137V64H1136ZM1136 128V127H1072V128V129H1136V128Z" fill="#EBEBEB" mask="url(#path-59-inside-29_5433_35672)"/>
<mask id="path-61-inside-30_5433_35672" fill="white">
<path d="M1136 64H1200V128H1136V64Z"/>
</mask>
<path d="M1200 128V129H1201V128H1200ZM1200 64H1199V128H1200H1201V64H1200ZM1200 128V127H1136V128V129H1200V128Z" fill="#EBEBEB" mask="url(#path-61-inside-30_5433_35672)"/>
<mask id="path-63-inside-31_5433_35672" fill="white">
<path d="M240 128H304V192H240V128Z"/>
</mask>
<path d="M304 192V193H305V192H304ZM304 128H303V192H304H305V128H304ZM304 192V191H240V192V193H304V192Z" fill="#EBEBEB" mask="url(#path-63-inside-31_5433_35672)"/>
<mask id="path-65-inside-32_5433_35672" fill="white">
<path d="M304 128H368V192H304V128Z"/>
</mask>
<path d="M368 192V193H369V192H368ZM368 128H367V192H368H369V128H368ZM368 192V191H304V192V193H368V192Z" fill="#EBEBEB" mask="url(#path-65-inside-32_5433_35672)"/>
<mask id="path-67-inside-33_5433_35672" fill="white">
<path d="M368 128H432V192H368V128Z"/>
</mask>
<path d="M432 192V193H433V192H432ZM432 128H431V192H432H433V128H432ZM432 192V191H368V192V193H432V192Z" fill="#EBEBEB" mask="url(#path-67-inside-33_5433_35672)"/>
<mask id="path-69-inside-34_5433_35672" fill="white">
<path d="M432 128H496V192H432V128Z"/>
</mask>
<path d="M496 192V193H497V192H496ZM496 128H495V192H496H497V128H496ZM496 192V191H432V192V193H496V192Z" fill="#EBEBEB" mask="url(#path-69-inside-34_5433_35672)"/>
<mask id="path-71-inside-35_5433_35672" fill="white">
<path d="M496 128H560V192H496V128Z"/>
</mask>
<path d="M496 128H560V192H496V128Z" fill="#E8F2EE" fill-opacity="0.5"/>
<path d="M560 192V193H561V192H560ZM560 128H559V192H560H561V128H560ZM560 192V191H496V192V193H560V192Z" fill="#EBEBEB" mask="url(#path-71-inside-35_5433_35672)"/>
<mask id="path-73-inside-36_5433_35672" fill="white">
<path d="M560 128H624V192H560V128Z"/>
</mask>
<path d="M624 192V193H625V192H624ZM624 128H623V192H624H625V128H624ZM624 192V191H560V192V193H624V192Z" fill="#EBEBEB" mask="url(#path-73-inside-36_5433_35672)"/>
<mask id="path-75-inside-37_5433_35672" fill="white">
<path d="M624 128H688V192H624V128Z"/>
</mask>
<path d="M688 192V193H689V192H688ZM688 128H687V192H688H689V128H688ZM688 192V191H624V192V193H688V192Z" fill="#EBEBEB" mask="url(#path-75-inside-37_5433_35672)"/>
<mask id="path-77-inside-38_5433_35672" fill="white">
<path d="M688 128H752V192H688V128Z"/>
</mask>
<path d="M752 192V193H753V192H752ZM752 128H751V192H752H753V128H752ZM752 192V191H688V192V193H752V192Z" fill="#EBEBEB" mask="url(#path-77-inside-38_5433_35672)"/>
<mask id="path-79-inside-39_5433_35672" fill="white">
<path d="M752 128H816V192H752V128Z"/>
</mask>
<path d="M752 128H816V192H752V128Z" fill="#E8F2EE" fill-opacity="0.5"/>
<path d="M816 192V193H817V192H816ZM816 128H815V192H816H817V128H816ZM816 192V191H752V192V193H816V192Z" fill="#EBEBEB" mask="url(#path-79-inside-39_5433_35672)"/>
<mask id="path-81-inside-40_5433_35672" fill="white">
<path d="M816 128H880V192H816V128Z"/>
</mask>
<path d="M880 192V193H881V192H880ZM880 128H879V192H880H881V128H880ZM880 192V191H816V192V193H880V192Z" fill="#EBEBEB" mask="url(#path-81-inside-40_5433_35672)"/>
<mask id="path-83-inside-41_5433_35672" fill="white">
<path d="M880 128H944V192H880V128Z"/>
</mask>
<path d="M944 192V193H945V192H944ZM944 128H943V192H944H945V128H944ZM944 192V191H880V192V193H944V192Z" fill="#EBEBEB" mask="url(#path-83-inside-41_5433_35672)"/>
<mask id="path-85-inside-42_5433_35672" fill="white">
<path d="M944 128H1008V192H944V128Z"/>
</mask>
<path d="M1008 192V193H1009V192H1008ZM1008 128H1007V192H1008H1009V128H1008ZM1008 192V191H944V192V193H1008V192Z" fill="#EBEBEB" mask="url(#path-85-inside-42_5433_35672)"/>
<mask id="path-87-inside-43_5433_35672" fill="white">
<path d="M1008 128H1072V192H1008V128Z"/>
</mask>
<path d="M1072 192V193H1073V192H1072ZM1072 128H1071V192H1072H1073V128H1072ZM1072 192V191H1008V192V193H1072V192Z" fill="#EBEBEB" mask="url(#path-87-inside-43_5433_35672)"/>
<mask id="path-89-inside-44_5433_35672" fill="white">
<path d="M1072 128H1136V192H1072V128Z"/>
</mask>
<path d="M1136 192V193H1137V192H1136ZM1136 128H1135V192H1136H1137V128H1136ZM1136 192V191H1072V192V193H1136V192Z" fill="#EBEBEB" mask="url(#path-89-inside-44_5433_35672)"/>
<mask id="path-91-inside-45_5433_35672" fill="white">
<path d="M1136 128H1200V192H1136V128Z"/>
</mask>
<path d="M1200 192V193H1201V192H1200ZM1200 128H1199V192H1200H1201V128H1200ZM1200 192V191H1136V192V193H1200V192Z" fill="#EBEBEB" mask="url(#path-91-inside-45_5433_35672)"/>
<mask id="path-93-inside-46_5433_35672" fill="white">
<path d="M240 192H304V256H240V192Z"/>
</mask>
<path d="M304 256V257H305V256H304ZM304 192H303V256H304H305V192H304ZM304 256V255H240V256V257H304V256Z" fill="#EBEBEB" mask="url(#path-93-inside-46_5433_35672)"/>
<mask id="path-95-inside-47_5433_35672" fill="white">
<path d="M304 192H368V256H304V192Z"/>
</mask>
<path d="M368 256V257H369V256H368ZM368 192H367V256H368H369V192H368ZM368 256V255H304V256V257H368V256Z" fill="#EBEBEB" mask="url(#path-95-inside-47_5433_35672)"/>
<mask id="path-97-inside-48_5433_35672" fill="white">
<path d="M368 192H432V256H368V192Z"/>
</mask>
<path d="M432 256V257H433V256H432ZM432 192H431V256H432H433V192H432ZM432 256V255H368V256V257H432V256Z" fill="#EBEBEB" mask="url(#path-97-inside-48_5433_35672)"/>
<mask id="path-99-inside-49_5433_35672" fill="white">
<path d="M432 192H496V256H432V192Z"/>
</mask>
<path d="M496 256V257H497V256H496ZM496 192H495V256H496H497V192H496ZM496 256V255H432V256V257H496V256Z" fill="#EBEBEB" mask="url(#path-99-inside-49_5433_35672)"/>
<mask id="path-101-inside-50_5433_35672" fill="white">
<path d="M496 192H560V256H496V192Z"/>
</mask>
<path d="M560 256V257H561V256H560ZM560 192H559V256H560H561V192H560ZM560 256V255H496V256V257H560V256Z" fill="#EBEBEB" mask="url(#path-101-inside-50_5433_35672)"/>
<mask id="path-103-inside-51_5433_35672" fill="white">
<path d="M560 192H624V256H560V192Z"/>
</mask>
<path d="M624 256V257H625V256H624ZM624 192H623V256H624H625V192H624ZM624 256V255H560V256V257H624V256Z" fill="#EBEBEB" mask="url(#path-103-inside-51_5433_35672)"/>
<mask id="path-105-inside-52_5433_35672" fill="white">
<path d="M624 192H688V256H624V192Z"/>
</mask>
<path d="M688 256V257H689V256H688ZM688 192H687V256H688H689V192H688ZM688 256V255H624V256V257H688V256Z" fill="#EBEBEB" mask="url(#path-105-inside-52_5433_35672)"/>
<mask id="path-107-inside-53_5433_35672" fill="white">
<path d="M688 192H752V256H688V192Z"/>
</mask>
<path d="M752 256V257H753V256H752ZM752 192H751V256H752H753V192H752ZM752 256V255H688V256V257H752V256Z" fill="#EBEBEB" mask="url(#path-107-inside-53_5433_35672)"/>
<mask id="path-109-inside-54_5433_35672" fill="white">
<path d="M752 192H816V256H752V192Z"/>
</mask>
<path d="M816 256V257H817V256H816ZM816 192H815V256H816H817V192H816ZM816 256V255H752V256V257H816V256Z" fill="#EBEBEB" mask="url(#path-109-inside-54_5433_35672)"/>
<mask id="path-111-inside-55_5433_35672" fill="white">
<path d="M816 192H880V256H816V192Z"/>
</mask>
<path d="M880 256V257H881V256H880ZM880 192H879V256H880H881V192H880ZM880 256V255H816V256V257H880V256Z" fill="#EBEBEB" mask="url(#path-111-inside-55_5433_35672)"/>
<mask id="path-113-inside-56_5433_35672" fill="white">
<path d="M880 192H944V256H880V192Z"/>
</mask>
<path d="M944 256V257H945V256H944ZM944 192H943V256H944H945V192H944ZM944 256V255H880V256V257H944V256Z" fill="#EBEBEB" mask="url(#path-113-inside-56_5433_35672)"/>
<mask id="path-115-inside-57_5433_35672" fill="white">
<path d="M944 192H1008V256H944V192Z"/>
</mask>
<path d="M1008 256V257H1009V256H1008ZM1008 192H1007V256H1008H1009V192H1008ZM1008 256V255H944V256V257H1008V256Z" fill="#EBEBEB" mask="url(#path-115-inside-57_5433_35672)"/>
<mask id="path-117-inside-58_5433_35672" fill="white">
<path d="M1008 192H1072V256H1008V192Z"/>
</mask>
<path d="M1008 192H1072V256H1008V192Z" fill="#E8F2EE" fill-opacity="0.5"/>
<path d="M1072 256V257H1073V256H1072ZM1072 192H1071V256H1072H1073V192H1072ZM1072 256V255H1008V256V257H1072V256Z" fill="#EBEBEB" mask="url(#path-117-inside-58_5433_35672)"/>
<mask id="path-119-inside-59_5433_35672" fill="white">
<path d="M1072 192H1136V256H1072V192Z"/>
</mask>
<path d="M1136 256V257H1137V256H1136ZM1136 192H1135V256H1136H1137V192H1136ZM1136 256V255H1072V256V257H1136V256Z" fill="#EBEBEB" mask="url(#path-119-inside-59_5433_35672)"/>
<mask id="path-121-inside-60_5433_35672" fill="white">
<path d="M1136 192H1200V256H1136V192Z"/>
</mask>
<path d="M1200 256V257H1201V256H1200ZM1200 192H1199V256H1200H1201V192H1200ZM1200 256V255H1136V256V257H1200V256Z" fill="#EBEBEB" mask="url(#path-121-inside-60_5433_35672)"/>
<mask id="path-123-inside-61_5433_35672" fill="white">
<path d="M240 256H304V320H240V256Z"/>
</mask>
<path d="M240 256H304V320H240V256Z" fill="#E8F2EE" fill-opacity="0.5"/>
<path d="M304 320V321H305V320H304ZM304 256H303V320H304H305V256H304ZM304 320V319H240V320V321H304V320Z" fill="#EBEBEB" mask="url(#path-123-inside-61_5433_35672)"/>
<mask id="path-125-inside-62_5433_35672" fill="white">
<path d="M304 256H368V320H304V256Z"/>
</mask>
<path d="M368 320V321H369V320H368ZM368 256H367V320H368H369V256H368ZM368 320V319H304V320V321H368V320Z" fill="#EBEBEB" mask="url(#path-125-inside-62_5433_35672)"/>
<mask id="path-127-inside-63_5433_35672" fill="white">
<path d="M368 256H432V320H368V256Z"/>
</mask>
<path d="M432 320V321H433V320H432ZM432 256H431V320H432H433V256H432ZM432 320V319H368V320V321H432V320Z" fill="#EBEBEB" mask="url(#path-127-inside-63_5433_35672)"/>
<mask id="path-129-inside-64_5433_35672" fill="white">
<path d="M432 256H496V320H432V256Z"/>
</mask>
<path d="M496 320V321H497V320H496ZM496 256H495V320H496H497V256H496ZM496 320V319H432V320V321H496V320Z" fill="#EBEBEB" mask="url(#path-129-inside-64_5433_35672)"/>
<mask id="path-131-inside-65_5433_35672" fill="white">
<path d="M496 256H560V320H496V256Z"/>
</mask>
<path d="M560 320V321H561V320H560ZM560 256H559V320H560H561V256H560ZM560 320V319H496V320V321H560V320Z" fill="#EBEBEB" mask="url(#path-131-inside-65_5433_35672)"/>
<mask id="path-133-inside-66_5433_35672" fill="white">
<path d="M560 256H624V320H560V256Z"/>
</mask>
<path d="M560 256H624V320H560V256Z" fill="#E8F2EE" fill-opacity="0.5"/>
<path d="M624 320V321H625V320H624ZM624 256H623V320H624H625V256H624ZM624 320V319H560V320V321H624V320Z" fill="#EBEBEB" mask="url(#path-133-inside-66_5433_35672)"/>
<mask id="path-135-inside-67_5433_35672" fill="white">
<path d="M624 256H688V320H624V256Z"/>
</mask>
<path d="M688 320V321H689V320H688ZM688 256H687V320H688H689V256H688ZM688 320V319H624V320V321H688V320Z" fill="#EBEBEB" mask="url(#path-135-inside-67_5433_35672)"/>
<mask id="path-137-inside-68_5433_35672" fill="white">
<path d="M688 256H752V320H688V256Z"/>
</mask>
<path d="M752 320V321H753V320H752ZM752 256H751V320H752H753V256H752ZM752 320V319H688V320V321H752V320Z" fill="#EBEBEB" mask="url(#path-137-inside-68_5433_35672)"/>
<mask id="path-139-inside-69_5433_35672" fill="white">
<path d="M752 256H816V320H752V256Z"/>
</mask>
<path d="M816 320V321H817V320H816ZM816 256H815V320H816H817V256H816ZM816 320V319H752V320V321H816V320Z" fill="#EBEBEB" mask="url(#path-139-inside-69_5433_35672)"/>
<mask id="path-141-inside-70_5433_35672" fill="white">
<path d="M816 256H880V320H816V256Z"/>
</mask>
<path d="M880 320V321H881V320H880ZM880 256H879V320H880H881V256H880ZM880 320V319H816V320V321H880V320Z" fill="#EBEBEB" mask="url(#path-141-inside-70_5433_35672)"/>
<mask id="path-143-inside-71_5433_35672" fill="white">
<path d="M880 256H944V320H880V256Z"/>
</mask>
<path d="M944 320V321H945V320H944ZM944 256H943V320H944H945V256H944ZM944 320V319H880V320V321H944V320Z" fill="#EBEBEB" mask="url(#path-143-inside-71_5433_35672)"/>
<mask id="path-145-inside-72_5433_35672" fill="white">
<path d="M944 256H1008V320H944V256Z"/>
</mask>
<path d="M1008 320V321H1009V320H1008ZM1008 256H1007V320H1008H1009V256H1008ZM1008 320V319H944V320V321H1008V320Z" fill="#EBEBEB" mask="url(#path-145-inside-72_5433_35672)"/>
<mask id="path-147-inside-73_5433_35672" fill="white">
<path d="M1008 256H1072V320H1008V256Z"/>
</mask>
<path d="M1072 320V321H1073V320H1072ZM1072 256H1071V320H1072H1073V256H1072ZM1072 320V319H1008V320V321H1072V320Z" fill="#EBEBEB" mask="url(#path-147-inside-73_5433_35672)"/>
<mask id="path-149-inside-74_5433_35672" fill="white">
<path d="M1072 256H1136V320H1072V256Z"/>
</mask>
<path d="M1136 320V321H1137V320H1136ZM1136 256H1135V320H1136H1137V256H1136ZM1136 320V319H1072V320V321H1136V320Z" fill="#EBEBEB" mask="url(#path-149-inside-74_5433_35672)"/>
<mask id="path-151-inside-75_5433_35672" fill="white">
<path d="M1136 256H1200V320H1136V256Z"/>
</mask>
<path d="M1200 320V321H1201V320H1200ZM1200 256H1199V320H1200H1201V256H1200ZM1200 320V319H1136V320V321H1200V320Z" fill="#EBEBEB" mask="url(#path-151-inside-75_5433_35672)"/>
<mask id="path-153-inside-76_5433_35672" fill="white">
<path d="M240 320H304V384H240V320Z"/>
</mask>
<path d="M304 384V385H305V384H304ZM304 320H303V384H304H305V320H304ZM304 384V383H240V384V385H304V384Z" fill="#EBEBEB" mask="url(#path-153-inside-76_5433_35672)"/>
<mask id="path-155-inside-77_5433_35672" fill="white">
<path d="M304 320H368V384H304V320Z"/>
</mask>
<path d="M368 384V385H369V384H368ZM368 320H367V384H368H369V320H368ZM368 384V383H304V384V385H368V384Z" fill="#EBEBEB" mask="url(#path-155-inside-77_5433_35672)"/>
<mask id="path-157-inside-78_5433_35672" fill="white">
<path d="M368 320H432V384H368V320Z"/>
</mask>
<path d="M432 384V385H433V384H432ZM432 320H431V384H432H433V320H432ZM432 384V383H368V384V385H432V384Z" fill="#EBEBEB" mask="url(#path-157-inside-78_5433_35672)"/>
<mask id="path-159-inside-79_5433_35672" fill="white">
<path d="M432 320H496V384H432V320Z"/>
</mask>
<path d="M432 320H496V384H432V320Z" fill="#E8F2EE" fill-opacity="0.5"/>
<path d="M496 384V385H497V384H496ZM496 320H495V384H496H497V320H496ZM496 384V383H432V384V385H496V384Z" fill="#EBEBEB" mask="url(#path-159-inside-79_5433_35672)"/>
<mask id="path-161-inside-80_5433_35672" fill="white">
<path d="M496 320H560V384H496V320Z"/>
</mask>
<path d="M560 384V385H561V384H560ZM560 320H559V384H560H561V320H560ZM560 384V383H496V384V385H560V384Z" fill="#EBEBEB" mask="url(#path-161-inside-80_5433_35672)"/>
<mask id="path-163-inside-81_5433_35672" fill="white">
<path d="M560 320H624V384H560V320Z"/>
</mask>
<path d="M624 384V385H625V384H624ZM624 320H623V384H624H625V320H624ZM624 384V383H560V384V385H624V384Z" fill="#EBEBEB" mask="url(#path-163-inside-81_5433_35672)"/>
<mask id="path-165-inside-82_5433_35672" fill="white">
<path d="M624 320H688V384H624V320Z"/>
</mask>
<path d="M688 384V385H689V384H688ZM688 320H687V384H688H689V320H688ZM688 384V383H624V384V385H688V384Z" fill="#EBEBEB" mask="url(#path-165-inside-82_5433_35672)"/>
<mask id="path-167-inside-83_5433_35672" fill="white">
<path d="M688 320H752V384H688V320Z"/>
</mask>
<path d="M752 384V385H753V384H752ZM752 320H751V384H752H753V320H752ZM752 384V383H688V384V385H752V384Z" fill="#EBEBEB" mask="url(#path-167-inside-83_5433_35672)"/>
<mask id="path-169-inside-84_5433_35672" fill="white">
<path d="M752 320H816V384H752V320Z"/>
</mask>
<path d="M816 384V385H817V384H816ZM816 320H815V384H816H817V320H816ZM816 384V383H752V384V385H816V384Z" fill="#EBEBEB" mask="url(#path-169-inside-84_5433_35672)"/>
<mask id="path-171-inside-85_5433_35672" fill="white">
<path d="M816 320H880V384H816V320Z"/>
</mask>
<path d="M816 320H880V384H816V320Z" fill="#E8F2EE" fill-opacity="0.5"/>
<path d="M880 384V385H881V384H880ZM880 320H879V384H880H881V320H880ZM880 384V383H816V384V385H880V384Z" fill="#EBEBEB" mask="url(#path-171-inside-85_5433_35672)"/>
<mask id="path-173-inside-86_5433_35672" fill="white">
<path d="M880 320H944V384H880V320Z"/>
</mask>
<path d="M944 384V385H945V384H944ZM944 320H943V384H944H945V320H944ZM944 384V383H880V384V385H944V384Z" fill="#EBEBEB" mask="url(#path-173-inside-86_5433_35672)"/>
<mask id="path-175-inside-87_5433_35672" fill="white">
<path d="M944 320H1008V384H944V320Z"/>
</mask>
<path d="M1008 384V385H1009V384H1008ZM1008 320H1007V384H1008H1009V320H1008ZM1008 384V383H944V384V385H1008V384Z" fill="#EBEBEB" mask="url(#path-175-inside-87_5433_35672)"/>
<mask id="path-177-inside-88_5433_35672" fill="white">
<path d="M1008 320H1072V384H1008V320Z"/>
</mask>
<path d="M1008 320H1072V384H1008V320Z" fill="#E8F2EE" fill-opacity="0.5"/>
<path d="M1072 384V385H1073V384H1072ZM1072 320H1071V384H1072H1073V320H1072ZM1072 384V383H1008V384V385H1072V384Z" fill="#EBEBEB" mask="url(#path-177-inside-88_5433_35672)"/>
<mask id="path-179-inside-89_5433_35672" fill="white">
<path d="M1072 320H1136V384H1072V320Z"/>
</mask>
<path d="M1136 384V385H1137V384H1136ZM1136 320H1135V384H1136H1137V320H1136ZM1136 384V383H1072V384V385H1136V384Z" fill="#EBEBEB" mask="url(#path-179-inside-89_5433_35672)"/>
<mask id="path-181-inside-90_5433_35672" fill="white">
<path d="M1136 320H1200V384H1136V320Z"/>
</mask>
<path d="M1200 384V385H1201V384H1200ZM1200 320H1199V384H1200H1201V320H1200ZM1200 384V383H1136V384V385H1200V384Z" fill="#EBEBEB" mask="url(#path-181-inside-90_5433_35672)"/>
<mask id="path-183-inside-91_5433_35672" fill="white">
<path d="M240 384H304V448H240V384Z"/>
</mask>
<path d="M304 448V449H305V448H304ZM304 384H303V448H304H305V384H304ZM304 448V447H240V448V449H304V448Z" fill="#EBEBEB" mask="url(#path-183-inside-91_5433_35672)"/>
<mask id="path-185-inside-92_5433_35672" fill="white">
<path d="M304 384H368V448H304V384Z"/>
</mask>
<path d="M368 448V449H369V448H368ZM368 384H367V448H368H369V384H368ZM368 448V447H304V448V449H368V448Z" fill="#EBEBEB" mask="url(#path-185-inside-92_5433_35672)"/>
<mask id="path-187-inside-93_5433_35672" fill="white">
<path d="M368 384H432V448H368V384Z"/>
</mask>
<path d="M432 448V449H433V448H432ZM432 384H431V448H432H433V384H432ZM432 448V447H368V448V449H432V448Z" fill="#EBEBEB" mask="url(#path-187-inside-93_5433_35672)"/>
<mask id="path-189-inside-94_5433_35672" fill="white">
<path d="M432 384H496V448H432V384Z"/>
</mask>
<path d="M496 448V449H497V448H496ZM496 384H495V448H496H497V384H496ZM496 448V447H432V448V449H496V448Z" fill="#EBEBEB" mask="url(#path-189-inside-94_5433_35672)"/>
<mask id="path-191-inside-95_5433_35672" fill="white">
<path d="M496 384H560V448H496V384Z"/>
</mask>
<path d="M560 448V449H561V448H560ZM560 384H559V448H560H561V384H560ZM560 448V447H496V448V449H560V448Z" fill="#EBEBEB" mask="url(#path-191-inside-95_5433_35672)"/>
<mask id="path-193-inside-96_5433_35672" fill="white">
<path d="M560 384H624V448H560V384Z"/>
</mask>
<path d="M624 448V449H625V448H624ZM624 384H623V448H624H625V384H624ZM624 448V447H560V448V449H624V448Z" fill="#EBEBEB" mask="url(#path-193-inside-96_5433_35672)"/>
<mask id="path-195-inside-97_5433_35672" fill="white">
<path d="M624 384H688V448H624V384Z"/>
</mask>
<path d="M624 384H688V448H624V384Z" fill="#E8F2EE" fill-opacity="0.5"/>
<path d="M688 448V449H689V448H688ZM688 384H687V448H688H689V384H688ZM688 448V447H624V448V449H688V448Z" fill="#EBEBEB" mask="url(#path-195-inside-97_5433_35672)"/>
<mask id="path-197-inside-98_5433_35672" fill="white">
<path d="M688 384H752V448H688V384Z"/>
</mask>
<path d="M752 448V449H753V448H752ZM752 384H751V448H752H753V384H752ZM752 448V447H688V448V449H752V448Z" fill="#EBEBEB" mask="url(#path-197-inside-98_5433_35672)"/>
<mask id="path-199-inside-99_5433_35672" fill="white">
<path d="M752 384H816V448H752V384Z"/>
</mask>
<path d="M816 448V449H817V448H816ZM816 384H815V448H816H817V384H816ZM816 448V447H752V448V449H816V448Z" fill="#EBEBEB" mask="url(#path-199-inside-99_5433_35672)"/>
<mask id="path-201-inside-100_5433_35672" fill="white">
<path d="M816 384H880V448H816V384Z"/>
</mask>
<path d="M880 448V449H881V448H880ZM880 384H879V448H880H881V384H880ZM880 448V447H816V448V449H880V448Z" fill="#EBEBEB" mask="url(#path-201-inside-100_5433_35672)"/>
<mask id="path-203-inside-101_5433_35672" fill="white">
<path d="M880 384H944V448H880V384Z"/>
</mask>
<path d="M944 448V449H945V448H944ZM944 384H943V448H944H945V384H944ZM944 448V447H880V448V449H944V448Z" fill="#EBEBEB" mask="url(#path-203-inside-101_5433_35672)"/>
<mask id="path-205-inside-102_5433_35672" fill="white">
<path d="M944 384H1008V448H944V384Z"/>
</mask>
<path d="M1008 448V449H1009V448H1008ZM1008 384H1007V448H1008H1009V384H1008ZM1008 448V447H944V448V449H1008V448Z" fill="#EBEBEB" mask="url(#path-205-inside-102_5433_35672)"/>
<mask id="path-207-inside-103_5433_35672" fill="white">
<path d="M1008 384H1072V448H1008V384Z"/>
</mask>
<path d="M1072 448V449H1073V448H1072ZM1072 384H1071V448H1072H1073V384H1072ZM1072 448V447H1008V448V449H1072V448Z" fill="#EBEBEB" mask="url(#path-207-inside-103_5433_35672)"/>
<mask id="path-209-inside-104_5433_35672" fill="white">
<path d="M1072 384H1136V448H1072V384Z"/>
</mask>
<path d="M1136 448V449H1137V448H1136ZM1136 384H1135V448H1136H1137V384H1136ZM1136 448V447H1072V448V449H1136V448Z" fill="#EBEBEB" mask="url(#path-209-inside-104_5433_35672)"/>
<mask id="path-211-inside-105_5433_35672" fill="white">
<path d="M1136 384H1200V448H1136V384Z"/>
</mask>
<path d="M1200 448V449H1201V448H1200ZM1200 384H1199V448H1200H1201V384H1200ZM1200 448V447H1136V448V449H1200V448Z" fill="#EBEBEB" mask="url(#path-211-inside-105_5433_35672)"/>
<mask id="path-213-inside-106_5433_35672" fill="white">
<path d="M240 448H304V512H240V448Z"/>
</mask>
<path d="M304 512V513H305V512H304ZM304 448H303V512H304H305V448H304ZM304 512V511H240V512V513H304V512Z" fill="#EBEBEB" mask="url(#path-213-inside-106_5433_35672)"/>
<mask id="path-215-inside-107_5433_35672" fill="white">
<path d="M304 448H368V512H304V448Z"/>
</mask>
<path d="M368 512V513H369V512H368ZM368 448H367V512H368H369V448H368ZM368 512V511H304V512V513H368V512Z" fill="#EBEBEB" mask="url(#path-215-inside-107_5433_35672)"/>
<mask id="path-217-inside-108_5433_35672" fill="white">
<path d="M368 448H432V512H368V448Z"/>
</mask>
<path d="M432 512V513H433V512H432ZM432 448H431V512H432H433V448H432ZM432 512V511H368V512V513H432V512Z" fill="#EBEBEB" mask="url(#path-217-inside-108_5433_35672)"/>
<mask id="path-219-inside-109_5433_35672" fill="white">
<path d="M432 448H496V512H432V448Z"/>
</mask>
<path d="M496 512V513H497V512H496ZM496 448H495V512H496H497V448H496ZM496 512V511H432V512V513H496V512Z" fill="#EBEBEB" mask="url(#path-219-inside-109_5433_35672)"/>
<mask id="path-221-inside-110_5433_35672" fill="white">
<path d="M496 448H560V512H496V448Z"/>
</mask>
<path d="M496 448H560V512H496V448Z" fill="#E8F2EE" fill-opacity="0.5"/>
<path d="M560 512V513H561V512H560ZM560 448H559V512H560H561V448H560ZM560 512V511H496V512V513H560V512Z" fill="#EBEBEB" mask="url(#path-221-inside-110_5433_35672)"/>
<mask id="path-223-inside-111_5433_35672" fill="white">
<path d="M560 448H624V512H560V448Z"/>
</mask>
<path d="M624 512V513H625V512H624ZM624 448H623V512H624H625V448H624ZM624 512V511H560V512V513H624V512Z" fill="#EBEBEB" mask="url(#path-223-inside-111_5433_35672)"/>
<mask id="path-225-inside-112_5433_35672" fill="white">
<path d="M624 448H688V512H624V448Z"/>
</mask>
<path d="M688 512V513H689V512H688ZM688 448H687V512H688H689V448H688ZM688 512V511H624V512V513H688V512Z" fill="#EBEBEB" mask="url(#path-225-inside-112_5433_35672)"/>
<mask id="path-227-inside-113_5433_35672" fill="white">
<path d="M688 448H752V512H688V448Z"/>
</mask>
<path d="M752 512V513H753V512H752ZM752 448H751V512H752H753V448H752ZM752 512V511H688V512V513H752V512Z" fill="#EBEBEB" mask="url(#path-227-inside-113_5433_35672)"/>
<mask id="path-229-inside-114_5433_35672" fill="white">
<path d="M752 448H816V512H752V448Z"/>
</mask>
<path d="M816 512V513H817V512H816ZM816 448H815V512H816H817V448H816ZM816 512V511H752V512V513H816V512Z" fill="#EBEBEB" mask="url(#path-229-inside-114_5433_35672)"/>
<mask id="path-231-inside-115_5433_35672" fill="white">
<path d="M816 448H880V512H816V448Z"/>
</mask>
<path d="M880 512V513H881V512H880ZM880 448H879V512H880H881V448H880ZM880 512V511H816V512V513H880V512Z" fill="#EBEBEB" mask="url(#path-231-inside-115_5433_35672)"/>
<mask id="path-233-inside-116_5433_35672" fill="white">
<path d="M880 448H944V512H880V448Z"/>
</mask>
<path d="M880 448H944V512H880V448Z" fill="#E8F2EE" fill-opacity="0.5"/>
<path d="M944 512V513H945V512H944ZM944 448H943V512H944H945V448H944ZM944 512V511H880V512V513H944V512Z" fill="#EBEBEB" mask="url(#path-233-inside-116_5433_35672)"/>
<mask id="path-235-inside-117_5433_35672" fill="white">
<path d="M944 448H1008V512H944V448Z"/>
</mask>
<path d="M1008 512V513H1009V512H1008ZM1008 448H1007V512H1008H1009V448H1008ZM1008 512V511H944V512V513H1008V512Z" fill="#EBEBEB" mask="url(#path-235-inside-117_5433_35672)"/>
<mask id="path-237-inside-118_5433_35672" fill="white">
<path d="M1008 448H1072V512H1008V448Z"/>
</mask>
<path d="M1072 512V513H1073V512H1072ZM1072 448H1071V512H1072H1073V448H1072ZM1072 512V511H1008V512V513H1072V512Z" fill="#EBEBEB" mask="url(#path-237-inside-118_5433_35672)"/>
<mask id="path-239-inside-119_5433_35672" fill="white">
<path d="M1072 448H1136V512H1072V448Z"/>
</mask>
<path d="M1136 512V513H1137V512H1136ZM1136 448H1135V512H1136H1137V448H1136ZM1136 512V511H1072V512V513H1136V512Z" fill="#EBEBEB" mask="url(#path-239-inside-119_5433_35672)"/>
<mask id="path-241-inside-120_5433_35672" fill="white">
<path d="M1136 448H1200V512H1136V448Z"/>
</mask>
<path d="M1200 512V513H1201V512H1200ZM1200 448H1199V512H1200H1201V448H1200ZM1200 512V511H1136V512V513H1200V512Z" fill="#EBEBEB" mask="url(#path-241-inside-120_5433_35672)"/>
<mask id="path-243-inside-121_5433_35672" fill="white">
<path d="M240 512H304V576H240V512Z"/>
</mask>
<path d="M304 576V577H305V576H304ZM304 512H303V576H304H305V512H304ZM304 576V575H240V576V577H304V576Z" fill="#EBEBEB" mask="url(#path-243-inside-121_5433_35672)"/>
<mask id="path-245-inside-122_5433_35672" fill="white">
<path d="M304 512H368V576H304V512Z"/>
</mask>
<path d="M368 576V577H369V576H368ZM368 512H367V576H368H369V512H368ZM368 576V575H304V576V577H368V576Z" fill="#EBEBEB" mask="url(#path-245-inside-122_5433_35672)"/>
<mask id="path-247-inside-123_5433_35672" fill="white">
<path d="M368 512H432V576H368V512Z"/>
</mask>
<path d="M368 512H432V576H368V512Z" fill="#E8F2EE" fill-opacity="0.5"/>
<path d="M432 576V577H433V576H432ZM432 512H431V576H432H433V512H432ZM432 576V575H368V576V577H432V576Z" fill="#EBEBEB" mask="url(#path-247-inside-123_5433_35672)"/>
<mask id="path-249-inside-124_5433_35672" fill="white">
<path d="M432 512H496V576H432V512Z"/>
</mask>
<path d="M496 576V577H497V576H496ZM496 512H495V576H496H497V512H496ZM496 576V575H432V576V577H496V576Z" fill="#EBEBEB" mask="url(#path-249-inside-124_5433_35672)"/>
<mask id="path-251-inside-125_5433_35672" fill="white">
<path d="M496 512H560V576H496V512Z"/>
</mask>
<path d="M560 576V577H561V576H560ZM560 512H559V576H560H561V512H560ZM560 576V575H496V576V577H560V576Z" fill="#EBEBEB" mask="url(#path-251-inside-125_5433_35672)"/>
<mask id="path-253-inside-126_5433_35672" fill="white">
<path d="M560 512H624V576H560V512Z"/>
</mask>
<path d="M624 576V577H625V576H624ZM624 512H623V576H624H625V512H624ZM624 576V575H560V576V577H624V576Z" fill="#EBEBEB" mask="url(#path-253-inside-126_5433_35672)"/>
<mask id="path-255-inside-127_5433_35672" fill="white">
<path d="M624 512H688V576H624V512Z"/>
</mask>
<path d="M688 576V577H689V576H688ZM688 512H687V576H688H689V512H688ZM688 576V575H624V576V577H688V576Z" fill="#EBEBEB" mask="url(#path-255-inside-127_5433_35672)"/>
<mask id="path-257-inside-128_5433_35672" fill="white">
<path d="M688 512H752V576H688V512Z"/>
</mask>
<path d="M752 576V577H753V576H752ZM752 512H751V576H752H753V512H752ZM752 576V575H688V576V577H752V576Z" fill="#EBEBEB" mask="url(#path-257-inside-128_5433_35672)"/>
<mask id="path-259-inside-129_5433_35672" fill="white">
<path d="M752 512H816V576H752V512Z"/>
</mask>
<path d="M816 576V577H817V576H816ZM816 512H815V576H816H817V512H816ZM816 576V575H752V576V577H816V576Z" fill="#EBEBEB" mask="url(#path-259-inside-129_5433_35672)"/>
<mask id="path-261-inside-130_5433_35672" fill="white">
<path d="M816 512H880V576H816V512Z"/>
</mask>
<path d="M880 576V577H881V576H880ZM880 512H879V576H880H881V512H880ZM880 576V575H816V576V577H880V576Z" fill="#EBEBEB" mask="url(#path-261-inside-130_5433_35672)"/>
<mask id="path-263-inside-131_5433_35672" fill="white">
<path d="M880 512H944V576H880V512Z"/>
</mask>
<path d="M944 576V577H945V576H944ZM944 512H943V576H944H945V512H944ZM944 576V575H880V576V577H944V576Z" fill="#EBEBEB" mask="url(#path-263-inside-131_5433_35672)"/>
<mask id="path-265-inside-132_5433_35672" fill="white">
<path d="M944 512H1008V576H944V512Z"/>
</mask>
<path d="M1008 576V577H1009V576H1008ZM1008 512H1007V576H1008H1009V512H1008ZM1008 576V575H944V576V577H1008V576Z" fill="#EBEBEB" mask="url(#path-265-inside-132_5433_35672)"/>
<mask id="path-267-inside-133_5433_35672" fill="white">
<path d="M1008 512H1072V576H1008V512Z"/>
</mask>
<path d="M1072 576V577H1073V576H1072ZM1072 512H1071V576H1072H1073V512H1072ZM1072 576V575H1008V576V577H1072V576Z" fill="#EBEBEB" mask="url(#path-267-inside-133_5433_35672)"/>
<mask id="path-269-inside-134_5433_35672" fill="white">
<path d="M1072 512H1136V576H1072V512Z"/>
</mask>
<path d="M1072 512H1136V576H1072V512Z" fill="#E8F2EE" fill-opacity="0.5"/>
<path d="M1136 576V577H1137V576H1136ZM1136 512H1135V576H1136H1137V512H1136ZM1136 576V575H1072V576V577H1136V576Z" fill="#EBEBEB" mask="url(#path-269-inside-134_5433_35672)"/>
<mask id="path-271-inside-135_5433_35672" fill="white">
<path d="M1136 512H1200V576H1136V512Z"/>
</mask>
<path d="M1200 576V577H1201V576H1200ZM1200 512H1199V576H1200H1201V512H1200ZM1200 576V575H1136V576V577H1200V576Z" fill="#EBEBEB" mask="url(#path-271-inside-135_5433_35672)"/>
<mask id="path-273-inside-136_5433_35672" fill="white">
<path d="M240 576H304V640H240V576Z"/>
</mask>
<path d="M304 640V641H305V640H304ZM304 576H303V640H304H305V576H304ZM304 640V639H240V640V641H304V640Z" fill="#EBEBEB" mask="url(#path-273-inside-136_5433_35672)"/>
<mask id="path-275-inside-137_5433_35672" fill="white">
<path d="M304 576H368V640H304V576Z"/>
</mask>
<path d="M368 640V641H369V640H368ZM368 576H367V640H368H369V576H368ZM368 640V639H304V640V641H368V640Z" fill="#EBEBEB" mask="url(#path-275-inside-137_5433_35672)"/>
<mask id="path-277-inside-138_5433_35672" fill="white">
<path d="M368 576H432V640H368V576Z"/>
</mask>
<path d="M432 640V641H433V640H432ZM432 576H431V640H432H433V576H432ZM432 640V639H368V640V641H432V640Z" fill="#EBEBEB" mask="url(#path-277-inside-138_5433_35672)"/>
<mask id="path-279-inside-139_5433_35672" fill="white">
<path d="M432 576H496V640H432V576Z"/>
</mask>
<path d="M496 640V641H497V640H496ZM496 576H495V640H496H497V576H496ZM496 640V639H432V640V641H496V640Z" fill="#EBEBEB" mask="url(#path-279-inside-139_5433_35672)"/>
<mask id="path-281-inside-140_5433_35672" fill="white">
<path d="M496 576H560V640H496V576Z"/>
</mask>
<path d="M560 640V641H561V640H560ZM560 576H559V640H560H561V576H560ZM560 640V639H496V640V641H560V640Z" fill="#EBEBEB" mask="url(#path-281-inside-140_5433_35672)"/>
<mask id="path-283-inside-141_5433_35672" fill="white">
<path d="M560 576H624V640H560V576Z"/>
</mask>
<path d="M624 640V641H625V640H624ZM624 576H623V640H624H625V576H624ZM624 640V639H560V640V641H624V640Z" fill="#EBEBEB" mask="url(#path-283-inside-141_5433_35672)"/>
<mask id="path-285-inside-142_5433_35672" fill="white">
<path d="M624 576H688V640H624V576Z"/>
</mask>
<path d="M624 576H688V640H624V576Z" fill="#E8F2EE" fill-opacity="0.5"/>
<path d="M688 640V641H689V640H688ZM688 576H687V640H688H689V576H688ZM688 640V639H624V640V641H688V640Z" fill="#EBEBEB" mask="url(#path-285-inside-142_5433_35672)"/>
<mask id="path-287-inside-143_5433_35672" fill="white">
<path d="M688 576H752V640H688V576Z"/>
</mask>
<path d="M752 640V641H753V640H752ZM752 576H751V640H752H753V576H752ZM752 640V639H688V640V641H752V640Z" fill="#EBEBEB" mask="url(#path-287-inside-143_5433_35672)"/>
<mask id="path-289-inside-144_5433_35672" fill="white">
<path d="M752 576H816V640H752V576Z"/>
</mask>
<path d="M816 640V641H817V640H816ZM816 576H815V640H816H817V576H816ZM816 640V639H752V640V641H816V640Z" fill="#EBEBEB" mask="url(#path-289-inside-144_5433_35672)"/>
<mask id="path-291-inside-145_5433_35672" fill="white">
<path d="M816 576H880V640H816V576Z"/>
</mask>
<path d="M880 640V641H881V640H880ZM880 576H879V640H880H881V576H880ZM880 640V639H816V640V641H880V640Z" fill="#EBEBEB" mask="url(#path-291-inside-145_5433_35672)"/>
<mask id="path-293-inside-146_5433_35672" fill="white">
<path d="M880 576H944V640H880V576Z"/>
</mask>
<path d="M944 640V641H945V640H944ZM944 576H943V640H944H945V576H944ZM944 640V639H880V640V641H944V640Z" fill="#EBEBEB" mask="url(#path-293-inside-146_5433_35672)"/>
<mask id="path-295-inside-147_5433_35672" fill="white">
<path d="M944 576H1008V640H944V576Z"/>
</mask>
<path d="M1008 640V641H1009V640H1008ZM1008 576H1007V640H1008H1009V576H1008ZM1008 640V639H944V640V641H1008V640Z" fill="#EBEBEB" mask="url(#path-295-inside-147_5433_35672)"/>
<mask id="path-297-inside-148_5433_35672" fill="white">
<path d="M1008 576H1072V640H1008V576Z"/>
</mask>
<path d="M1072 640V641H1073V640H1072ZM1072 576H1071V640H1072H1073V576H1072ZM1072 640V639H1008V640V641H1072V640Z" fill="#EBEBEB" mask="url(#path-297-inside-148_5433_35672)"/>
<mask id="path-299-inside-149_5433_35672" fill="white">
<path d="M1072 576H1136V640H1072V576Z"/>
</mask>
<path d="M1136 640V641H1137V640H1136ZM1136 576H1135V640H1136H1137V576H1136ZM1136 640V639H1072V640V641H1136V640Z" fill="#EBEBEB" mask="url(#path-299-inside-149_5433_35672)"/>
<mask id="path-301-inside-150_5433_35672" fill="white">
<path d="M1136 576H1200V640H1136V576Z"/>
</mask>
<path d="M1200 640V641H1201V640H1200ZM1200 576H1199V640H1200H1201V576H1200ZM1200 640V639H1136V640V641H1200V640Z" fill="#EBEBEB" mask="url(#path-301-inside-150_5433_35672)"/>
<mask id="path-303-inside-151_5433_35672" fill="white">
<path d="M240 640H304V704H240V640Z"/>
</mask>
<path d="M304 704V705H305V704H304ZM304 640H303V704H304H305V640H304ZM304 704V703H240V704V705H304V704Z" fill="#EBEBEB" mask="url(#path-303-inside-151_5433_35672)"/>
<mask id="path-305-inside-152_5433_35672" fill="white">
<path d="M304 640H368V704H304V640Z"/>
</mask>
<path d="M368 704V705H369V704H368ZM368 640H367V704H368H369V640H368ZM368 704V703H304V704V705H368V704Z" fill="#EBEBEB" mask="url(#path-305-inside-152_5433_35672)"/>
<mask id="path-307-inside-153_5433_35672" fill="white">
<path d="M368 640H432V704H368V640Z"/>
</mask>
<path d="M432 704V705H433V704H432ZM432 640H431V704H432H433V640H432ZM432 704V703H368V704V705H432V704Z" fill="#EBEBEB" mask="url(#path-307-inside-153_5433_35672)"/>
<mask id="path-309-inside-154_5433_35672" fill="white">
<path d="M432 640H496V704H432V640Z"/>
</mask>
<path d="M496 704V705H497V704H496ZM496 640H495V704H496H497V640H496ZM496 704V703H432V704V705H496V704Z" fill="#EBEBEB" mask="url(#path-309-inside-154_5433_35672)"/>
<mask id="path-311-inside-155_5433_35672" fill="white">
<path d="M496 640H560V704H496V640Z"/>
</mask>
<path d="M496 640H560V704H496V640Z" fill="#E8F2EE" fill-opacity="0.5"/>
<path d="M560 704V705H561V704H560ZM560 640H559V704H560H561V640H560ZM560 704V703H496V704V705H560V704Z" fill="#EBEBEB" mask="url(#path-311-inside-155_5433_35672)"/>
<mask id="path-313-inside-156_5433_35672" fill="white">
<path d="M560 640H624V704H560V640Z"/>
</mask>
<path d="M624 704V705H625V704H624ZM624 640H623V704H624H625V640H624ZM624 704V703H560V704V705H624V704Z" fill="#EBEBEB" mask="url(#path-313-inside-156_5433_35672)"/>
<mask id="path-315-inside-157_5433_35672" fill="white">
<path d="M624 640H688V704H624V640Z"/>
</mask>
<path d="M688 704V705H689V704H688ZM688 640H687V704H688H689V640H688ZM688 704V703H624V704V705H688V704Z" fill="#EBEBEB" mask="url(#path-315-inside-157_5433_35672)"/>
<mask id="path-317-inside-158_5433_35672" fill="white">
<path d="M688 640H752V704H688V640Z"/>
</mask>
<path d="M752 704V705H753V704H752ZM752 640H751V704H752H753V640H752ZM752 704V703H688V704V705H752V704Z" fill="#EBEBEB" mask="url(#path-317-inside-158_5433_35672)"/>
<mask id="path-319-inside-159_5433_35672" fill="white">
<path d="M752 640H816V704H752V640Z"/>
</mask>
<path d="M816 704V705H817V704H816ZM816 640H815V704H816H817V640H816ZM816 704V703H752V704V705H816V704Z" fill="#EBEBEB" mask="url(#path-319-inside-159_5433_35672)"/>
<mask id="path-321-inside-160_5433_35672" fill="white">
<path d="M816 640H880V704H816V640Z"/>
</mask>
<path d="M880 704V705H881V704H880ZM880 640H879V704H880H881V640H880ZM880 704V703H816V704V705H880V704Z" fill="#EBEBEB" mask="url(#path-321-inside-160_5433_35672)"/>
<mask id="path-323-inside-161_5433_35672" fill="white">
<path d="M880 640H944V704H880V640Z"/>
</mask>
<path d="M944 704V705H945V704H944ZM944 640H943V704H944H945V640H944ZM944 704V703H880V704V705H944V704Z" fill="#EBEBEB" mask="url(#path-323-inside-161_5433_35672)"/>
<mask id="path-325-inside-162_5433_35672" fill="white">
<path d="M944 640H1008V704H944V640Z"/>
</mask>
<path d="M944 640H1008V704H944V640Z" fill="#E8F2EE" fill-opacity="0.5"/>
<path d="M1008 704V705H1009V704H1008ZM1008 640H1007V704H1008H1009V640H1008ZM1008 704V703H944V704V705H1008V704Z" fill="#EBEBEB" mask="url(#path-325-inside-162_5433_35672)"/>
<mask id="path-327-inside-163_5433_35672" fill="white">
<path d="M1008 640H1072V704H1008V640Z"/>
</mask>
<path d="M1072 704V705H1073V704H1072ZM1072 640H1071V704H1072H1073V640H1072ZM1072 704V703H1008V704V705H1072V704Z" fill="#EBEBEB" mask="url(#path-327-inside-163_5433_35672)"/>
<mask id="path-329-inside-164_5433_35672" fill="white">
<path d="M1072 640H1136V704H1072V640Z"/>
</mask>
<path d="M1136 704V705H1137V704H1136ZM1136 640H1135V704H1136H1137V640H1136ZM1136 704V703H1072V704V705H1136V704Z" fill="#EBEBEB" mask="url(#path-329-inside-164_5433_35672)"/>
<mask id="path-331-inside-165_5433_35672" fill="white">
<path d="M1136 640H1200V704H1136V640Z"/>
</mask>
<path d="M1200 704V705H1201V704H1200ZM1200 640H1199V704H1200H1201V640H1200ZM1200 704V703H1136V704V705H1200V704Z" fill="#EBEBEB" mask="url(#path-331-inside-165_5433_35672)"/>
<mask id="path-333-inside-166_5433_35672" fill="white">
<path d="M240 704H304V768H240V704Z"/>
</mask>
<path d="M304 768V769H305V768H304ZM304 704H303V768H304H305V704H304ZM304 768V767H240V768V769H304V768Z" fill="#EBEBEB" mask="url(#path-333-inside-166_5433_35672)"/>
<mask id="path-335-inside-167_5433_35672" fill="white">
<path d="M304 704H368V768H304V704Z"/>
</mask>
<path d="M368 768V769H369V768H368ZM368 704H367V768H368H369V704H368ZM368 768V767H304V768V769H368V768Z" fill="#EBEBEB" mask="url(#path-335-inside-167_5433_35672)"/>
<mask id="path-337-inside-168_5433_35672" fill="white">
<path d="M368 704H432V768H368V704Z"/>
</mask>
<path d="M432 768V769H433V768H432ZM432 704H431V768H432H433V704H432ZM432 768V767H368V768V769H432V768Z" fill="#EBEBEB" mask="url(#path-337-inside-168_5433_35672)"/>
<mask id="path-339-inside-169_5433_35672" fill="white">
<path d="M432 704H496V768H432V704Z"/>
</mask>
<path d="M496 768V769H497V768H496ZM496 704H495V768H496H497V704H496ZM496 768V767H432V768V769H496V768Z" fill="#EBEBEB" mask="url(#path-339-inside-169_5433_35672)"/>
<mask id="path-341-inside-170_5433_35672" fill="white">
<path d="M496 704H560V768H496V704Z"/>
</mask>
<path d="M560 768V769H561V768H560ZM560 704H559V768H560H561V704H560ZM560 768V767H496V768V769H560V768Z" fill="#EBEBEB" mask="url(#path-341-inside-170_5433_35672)"/>
<mask id="path-343-inside-171_5433_35672" fill="white">
<path d="M560 704H624V768H560V704Z"/>
</mask>
<path d="M624 768V769H625V768H624ZM624 704H623V768H624H625V704H624ZM624 768V767H560V768V769H624V768Z" fill="#EBEBEB" mask="url(#path-343-inside-171_5433_35672)"/>
<mask id="path-345-inside-172_5433_35672" fill="white">
<path d="M624 704H688V768H624V704Z"/>
</mask>
<path d="M688 768V769H689V768H688ZM688 704H687V768H688H689V704H688ZM688 768V767H624V768V769H688V768Z" fill="#EBEBEB" mask="url(#path-345-inside-172_5433_35672)"/>
<mask id="path-347-inside-173_5433_35672" fill="white">
<path d="M688 704H752V768H688V704Z"/>
</mask>
<path d="M752 768V769H753V768H752ZM752 704H751V768H752H753V704H752ZM752 768V767H688V768V769H752V768Z" fill="#EBEBEB" mask="url(#path-347-inside-173_5433_35672)"/>
<mask id="path-349-inside-174_5433_35672" fill="white">
<path d="M752 704H816V768H752V704Z"/>
</mask>
<path d="M752 704H816V768H752V704Z" fill="#E8F2EE" fill-opacity="0.5"/>
<path d="M816 768V769H817V768H816ZM816 704H815V768H816H817V704H816ZM816 768V767H752V768V769H816V768Z" fill="#EBEBEB" mask="url(#path-349-inside-174_5433_35672)"/>
<mask id="path-351-inside-175_5433_35672" fill="white">
<path d="M816 704H880V768H816V704Z"/>
</mask>
<path d="M880 768V769H881V768H880ZM880 704H879V768H880H881V704H880ZM880 768V767H816V768V769H880V768Z" fill="#EBEBEB" mask="url(#path-351-inside-175_5433_35672)"/>
<mask id="path-353-inside-176_5433_35672" fill="white">
<path d="M880 704H944V768H880V704Z"/>
</mask>
<path d="M944 768V769H945V768H944ZM944 704H943V768H944H945V704H944ZM944 768V767H880V768V769H944V768Z" fill="#EBEBEB" mask="url(#path-353-inside-176_5433_35672)"/>
<mask id="path-355-inside-177_5433_35672" fill="white">
<path d="M944 704H1008V768H944V704Z"/>
</mask>
<path d="M1008 768V769H1009V768H1008ZM1008 704H1007V768H1008H1009V704H1008ZM1008 768V767H944V768V769H1008V768Z" fill="#EBEBEB" mask="url(#path-355-inside-177_5433_35672)"/>
<mask id="path-357-inside-178_5433_35672" fill="white">
<path d="M1008 704H1072V768H1008V704Z"/>
</mask>
<path d="M1072 768V769H1073V768H1072ZM1072 704H1071V768H1072H1073V704H1072ZM1072 768V767H1008V768V769H1072V768Z" fill="#EBEBEB" mask="url(#path-357-inside-178_5433_35672)"/>
<mask id="path-359-inside-179_5433_35672" fill="white">
<path d="M1072 704H1136V768H1072V704Z"/>
</mask>
<path d="M1072 704H1136V768H1072V704Z" fill="#E8F2EE" fill-opacity="0.5"/>
<path d="M1136 768V769H1137V768H1136ZM1136 704H1135V768H1136H1137V704H1136ZM1136 768V767H1072V768V769H1136V768Z" fill="#EBEBEB" mask="url(#path-359-inside-179_5433_35672)"/>
<mask id="path-361-inside-180_5433_35672" fill="white">
<path d="M1136 704H1200V768H1136V704Z"/>
</mask>
<path d="M1200 768V769H1201V768H1200ZM1200 704H1199V768H1200H1201V704H1200ZM1200 768V767H1136V768V769H1200V768Z" fill="#EBEBEB" mask="url(#path-361-inside-180_5433_35672)"/>
<mask id="path-363-inside-181_5433_35672" fill="white">
<path d="M240 768H304V832H240V768Z"/>
</mask>
<path d="M304 832V833H305V832H304ZM304 768H303V832H304H305V768H304ZM304 832V831H240V832V833H304V832Z" fill="#EBEBEB" mask="url(#path-363-inside-181_5433_35672)"/>
<mask id="path-365-inside-182_5433_35672" fill="white">
<path d="M304 768H368V832H304V768Z"/>
</mask>
<path d="M368 832V833H369V832H368ZM368 768H367V832H368H369V768H368ZM368 832V831H304V832V833H368V832Z" fill="#EBEBEB" mask="url(#path-365-inside-182_5433_35672)"/>
<mask id="path-367-inside-183_5433_35672" fill="white">
<path d="M368 768H432V832H368V768Z"/>
</mask>
<path d="M432 832V833H433V832H432ZM432 768H431V832H432H433V768H432ZM432 832V831H368V832V833H432V832Z" fill="#EBEBEB" mask="url(#path-367-inside-183_5433_35672)"/>
<mask id="path-369-inside-184_5433_35672" fill="white">
<path d="M432 768H496V832H432V768Z"/>
</mask>
<path d="M496 832V833H497V832H496ZM496 768H495V832H496H497V768H496ZM496 832V831H432V832V833H496V832Z" fill="#EBEBEB" mask="url(#path-369-inside-184_5433_35672)"/>
<mask id="path-371-inside-185_5433_35672" fill="white">
<path d="M496 768H560V832H496V768Z"/>
</mask>
<path d="M496 768H560V832H496V768Z" fill="#E8F2EE" fill-opacity="0.5"/>
<path d="M560 832V833H561V832H560ZM560 768H559V832H560H561V768H560ZM560 832V831H496V832V833H560V832Z" fill="#EBEBEB" mask="url(#path-371-inside-185_5433_35672)"/>
<mask id="path-373-inside-186_5433_35672" fill="white">
<path d="M560 768H624V832H560V768Z"/>
</mask>
<path d="M624 832V833H625V832H624ZM624 768H623V832H624H625V768H624ZM624 832V831H560V832V833H624V832Z" fill="#EBEBEB" mask="url(#path-373-inside-186_5433_35672)"/>
<mask id="path-375-inside-187_5433_35672" fill="white">
<path d="M624 768H688V832H624V768Z"/>
</mask>
<path d="M688 832V833H689V832H688ZM688 768H687V832H688H689V768H688ZM688 832V831H624V832V833H688V832Z" fill="#EBEBEB" mask="url(#path-375-inside-187_5433_35672)"/>
<mask id="path-377-inside-188_5433_35672" fill="white">
<path d="M688 768H752V832H688V768Z"/>
</mask>
<path d="M752 832V833H753V832H752ZM752 768H751V832H752H753V768H752ZM752 832V831H688V832V833H752V832Z" fill="#EBEBEB" mask="url(#path-377-inside-188_5433_35672)"/>
<mask id="path-379-inside-189_5433_35672" fill="white">
<path d="M752 768H816V832H752V768Z"/>
</mask>
<path d="M816 832V833H817V832H816ZM816 768H815V832H816H817V768H816ZM816 832V831H752V832V833H816V832Z" fill="#EBEBEB" mask="url(#path-379-inside-189_5433_35672)"/>
<mask id="path-381-inside-190_5433_35672" fill="white">
<path d="M816 768H880V832H816V768Z"/>
</mask>
<path d="M880 832V833H881V832H880ZM880 768H879V832H880H881V768H880ZM880 832V831H816V832V833H880V832Z" fill="#EBEBEB" mask="url(#path-381-inside-190_5433_35672)"/>
<mask id="path-383-inside-191_5433_35672" fill="white">
<path d="M880 768H944V832H880V768Z"/>
</mask>
<path d="M944 832V833H945V832H944ZM944 768H943V832H944H945V768H944ZM944 832V831H880V832V833H944V832Z" fill="#EBEBEB" mask="url(#path-383-inside-191_5433_35672)"/>
<mask id="path-385-inside-192_5433_35672" fill="white">
<path d="M944 768H1008V832H944V768Z"/>
</mask>
<path d="M1008 832V833H1009V832H1008ZM1008 768H1007V832H1008H1009V768H1008ZM1008 832V831H944V832V833H1008V832Z" fill="#EBEBEB" mask="url(#path-385-inside-192_5433_35672)"/>
<mask id="path-387-inside-193_5433_35672" fill="white">
<path d="M1008 768H1072V832H1008V768Z"/>
</mask>
<path d="M1072 832V833H1073V832H1072ZM1072 768H1071V832H1072H1073V768H1072ZM1072 832V831H1008V832V833H1072V832Z" fill="#EBEBEB" mask="url(#path-387-inside-193_5433_35672)"/>
<mask id="path-389-inside-194_5433_35672" fill="white">
<path d="M1072 768H1136V832H1072V768Z"/>
</mask>
<path d="M1136 832V833H1137V832H1136ZM1136 768H1135V832H1136H1137V768H1136ZM1136 832V831H1072V832V833H1136V832Z" fill="#EBEBEB" mask="url(#path-389-inside-194_5433_35672)"/>
<mask id="path-391-inside-195_5433_35672" fill="white">
<path d="M1136 768H1200V832H1136V768Z"/>
</mask>
<path d="M1200 832V833H1201V832H1200ZM1200 768H1199V832H1200H1201V768H1200ZM1200 832V831H1136V832V833H1200V832Z" fill="#EBEBEB" mask="url(#path-391-inside-195_5433_35672)"/>
</g>
<rect x="240.5" y="0.5" width="959" height="959" stroke="#EBEBEB"/>
</g>
</g>
<defs>
<radialGradient id="paint0_radial_5433_35672" cx="0" cy="0" r="1" gradientUnits="userSpaceOnUse" gradientTransform="translate(480 480) rotate(90) scale(480 480)">
<stop/>
<stop offset="1" stop-opacity="0"/>
</radialGradient>
<clipPath id="clip0_5433_35672">
<rect x="240" width="960" height="960" fill="white"/>
</clipPath>
</defs>
</svg>
