<svg width="98" height="38" viewBox="0 0 98 38" fill="none" xmlns="http://www.w3.org/2000/svg">
<rect x="14.4912" width="5.05446" height="4.28718" fill="#35A18A"/>
<rect x="14.4912" y="33.7129" width="5.05446" height="4.28718" fill="#35A18A"/>
<path fill-rule="evenodd" clip-rule="evenodd" d="M22.8717 16.7627L33.9988 16.6298C32.746 8.42114 25.656 2.13257 17.0971 2.13257C7.654 2.13257 -0.00115967 9.78773 -0.00115967 19.2309C-0.00115967 28.674 7.654 36.3291 17.0971 36.3291C25.6542 36.3291 32.743 30.0432 33.998 21.8371H22.8105C21.8206 24.0037 19.6345 25.5093 17.0968 25.5093C13.6292 25.5093 10.8182 22.6983 10.8182 19.2307C10.8182 15.7632 13.6292 12.9521 17.0968 12.9521C19.6882 12.9521 21.9129 14.5221 22.8717 16.7627Z" fill="#35A18A"/>
<path d="M39.593 28.2191C38.8527 28.2191 38.1929 28.0907 37.6138 27.8338C37.0346 27.5719 36.5763 27.1867 36.2389 26.678C35.9065 26.1643 35.7403 25.5247 35.7403 24.7592C35.7403 24.1146 35.8587 23.5732 36.0954 23.1351C36.3321 22.6969 36.6544 22.3444 37.0623 22.0775C37.4702 21.8106 37.9336 21.6091 38.4523 21.4731C38.976 21.3372 39.525 21.2415 40.0991 21.1861C40.774 21.1156 41.3179 21.0501 41.7308 20.9897C42.1438 20.9242 42.4434 20.8285 42.6298 20.7026C42.8161 20.5767 42.9093 20.3904 42.9093 20.1436V20.0983C42.9093 19.6198 42.7582 19.2497 42.456 18.9878C42.1589 18.7259 41.7359 18.595 41.1869 18.595C40.6078 18.595 40.147 18.7234 39.8045 18.9802C39.462 19.2321 39.2354 19.5493 39.1246 19.9321L36.1482 19.6903C36.2993 18.9853 36.5965 18.3759 37.0396 17.8622C37.4828 17.3435 38.0544 16.9456 38.7545 16.6686C39.4595 16.3866 40.2754 16.2456 41.202 16.2456C41.8467 16.2456 42.4636 16.3212 43.0528 16.4722C43.6471 16.6233 44.1734 16.8575 44.6317 17.1748C45.095 17.4921 45.4601 17.9 45.727 18.3986C45.9939 18.8921 46.1274 19.4839 46.1274 20.1738V28H43.0755V26.3909H42.9848C42.7985 26.7536 42.5492 27.0733 42.237 27.3503C41.9247 27.6223 41.5495 27.8363 41.1114 27.9924C40.6732 28.1435 40.1671 28.2191 39.593 28.2191ZM40.5146 25.9981C40.988 25.9981 41.406 25.905 41.7686 25.7186C42.1312 25.5272 42.4157 25.2704 42.6222 24.9481C42.8287 24.6258 42.9319 24.2607 42.9319 23.8527V22.6214C42.8312 22.6869 42.6927 22.7473 42.5165 22.8027C42.3452 22.853 42.1513 22.9009 41.9348 22.9462C41.7182 22.9865 41.5017 23.0243 41.2851 23.0595C41.0686 23.0897 40.8722 23.1174 40.6959 23.1426C40.3182 23.198 39.9883 23.2862 39.7063 23.407C39.4243 23.5279 39.2052 23.6916 39.0491 23.898C38.8929 24.0995 38.8149 24.3513 38.8149 24.6535C38.8149 25.0916 38.9735 25.4265 39.2908 25.6582C39.6131 25.8848 40.021 25.9981 40.5146 25.9981ZM57.8529 19.7054L54.9068 19.8868C54.8564 19.6349 54.7481 19.4083 54.5819 19.2069C54.4157 19.0004 54.1967 18.8367 53.9247 18.7158C53.6578 18.5899 53.338 18.527 52.9653 18.527C52.4668 18.527 52.0462 18.6327 51.7038 18.8443C51.3613 19.0507 51.1901 19.3277 51.1901 19.6752C51.1901 19.9522 51.3009 20.1864 51.5225 20.3778C51.7441 20.5692 52.1243 20.7228 52.6632 20.8386L54.7632 21.2616C55.8913 21.4933 56.7324 21.866 57.2864 22.3796C57.8403 22.8933 58.1173 23.5682 58.1173 24.4042C58.1173 25.1646 57.8932 25.8319 57.445 26.4061C57.0018 26.9802 56.3924 27.4284 55.6169 27.7507C54.8463 28.068 53.9575 28.2266 52.9502 28.2266C51.4142 28.2266 50.1904 27.9068 49.2789 27.2672C48.3724 26.6226 47.841 25.7463 47.6849 24.6384L50.8501 24.4722C50.9458 24.9405 51.1775 25.2981 51.5451 25.5449C51.9128 25.7866 52.3837 25.9075 52.9578 25.9075C53.5218 25.9075 53.9751 25.7992 54.3175 25.5826C54.665 25.3611 54.8413 25.0765 54.8463 24.729C54.8413 24.4369 54.7179 24.1977 54.4762 24.0114C54.2344 23.82 53.8618 23.6739 53.3582 23.5732L51.3487 23.1728C50.2156 22.9462 49.372 22.5534 48.8181 21.9944C48.2691 21.4354 47.9946 20.7228 47.9946 19.8565C47.9946 19.1112 48.1961 18.4691 48.599 17.9302C49.0069 17.3913 49.5785 16.9759 50.3138 16.6838C51.0541 16.3917 51.9203 16.2456 52.9125 16.2456C54.378 16.2456 55.5313 16.5553 56.3723 17.1748C57.2184 17.7942 57.7119 18.6378 57.8529 19.7054ZM62.9364 21.2918V28H59.7183V12.5289H62.8457V18.4439H62.9817C63.2436 17.759 63.6666 17.2226 64.2508 16.8348C64.835 16.442 65.5678 16.2456 66.4491 16.2456C67.2549 16.2456 67.9574 16.4219 68.5567 16.7744C69.1611 17.1219 69.6294 17.623 69.9618 18.2777C70.2993 18.9274 70.4655 19.7054 70.4604 20.612V28H67.2423V21.1861C67.2473 20.4709 67.066 19.9144 66.6984 19.5166C66.3358 19.1187 65.8271 18.9198 65.1724 18.9198C64.7343 18.9198 64.3465 19.013 64.0091 19.1993C63.6767 19.3857 63.4148 19.6576 63.2235 20.0152C63.0371 20.3677 62.9414 20.7933 62.9364 21.2918ZM72.5675 28V16.3967H75.7856V28H72.5675ZM74.1841 14.901C73.7057 14.901 73.2952 14.7423 72.9528 14.425C72.6154 14.1027 72.4466 13.7175 72.4466 13.2692C72.4466 12.8261 72.6154 12.4458 72.9528 12.1286C73.2952 11.8062 73.7057 11.6451 74.1841 11.6451C74.6626 11.6451 75.0705 11.8062 75.4079 12.1286C75.7504 12.4458 75.9216 12.8261 75.9216 13.2692C75.9216 13.7175 75.7504 14.1027 75.4079 14.425C75.0705 14.7423 74.6626 14.901 74.1841 14.901ZM83.226 28.2266C82.0324 28.2266 81.0051 27.9849 80.1439 27.5014C79.2877 27.0129 78.628 26.323 78.1647 25.4316C77.7013 24.5351 77.4697 23.475 77.4697 22.2512C77.4697 21.0577 77.7013 20.0101 78.1647 19.1087C78.628 18.2072 79.2802 17.5046 80.1212 17.001C80.9673 16.4974 81.9594 16.2456 83.0976 16.2456C83.8631 16.2456 84.5757 16.369 85.2354 16.6158C85.9002 16.8575 86.4794 17.2226 86.9729 17.7111C87.4715 18.1996 87.8593 18.814 88.1363 19.5544C88.4133 20.2896 88.5517 21.1508 88.5517 22.1379V23.0218H78.7539V21.0274H85.5225C85.5225 20.5641 85.4218 20.1537 85.2203 19.7961C85.0189 19.4385 84.7394 19.159 84.3818 18.9576C84.0293 18.7511 83.6188 18.6479 83.1505 18.6479C82.662 18.6479 82.2289 18.7612 81.8511 18.9878C81.4785 19.2094 81.1864 19.509 80.9749 19.8868C80.7633 20.2594 80.6551 20.6749 80.65 21.1332V23.0293C80.65 23.6034 80.7558 24.0995 80.9673 24.5175C81.1839 24.9355 81.4885 25.2578 81.8814 25.4844C82.2742 25.7111 82.74 25.8244 83.2789 25.8244C83.6365 25.8244 83.9638 25.774 84.2609 25.6733C84.5581 25.5726 84.8124 25.4215 85.0239 25.22C85.2354 25.0186 85.3966 24.7718 85.5074 24.4797L88.4838 24.6761C88.3327 25.3913 88.023 26.0158 87.5546 26.5496C87.0913 27.0784 86.492 27.4913 85.7567 27.7885C85.0264 28.0806 84.1829 28.2266 83.226 28.2266ZM90.2264 28V16.3967H93.3463V18.4212H93.4671C93.6787 17.7011 94.0337 17.1572 94.5323 16.7895C95.0309 16.4168 95.605 16.2305 96.2547 16.2305C96.4158 16.2305 96.5896 16.2406 96.7759 16.2607C96.9622 16.2809 97.1259 16.3086 97.2669 16.3438V19.1993C97.1158 19.154 96.9068 19.1137 96.6399 19.0784C96.373 19.0432 96.1288 19.0256 95.9072 19.0256C95.4338 19.0256 95.0107 19.1288 94.638 19.3353C94.2704 19.5367 93.9783 19.8188 93.7618 20.1814C93.5502 20.544 93.4445 20.962 93.4445 21.4354V28H90.2264Z" fill="#36A18B"/>
</svg>
