<svg width="148" height="44" viewBox="0 0 148 44" fill="none" xmlns="http://www.w3.org/2000/svg">
<rect x="42" y="1" width="42" height="42" rx="21" transform="rotate(90 42 1)" fill="#36A18B"/>
<path d="M17.3003 28.3799C17.3003 28.8569 17.413 29.2758 17.6382 29.6368C17.8703 29.9977 18.1707 30.2781 18.5392 30.478C18.9147 30.6713 19.3208 30.768 19.7577 30.768C20.099 30.768 20.4061 30.7261 20.6792 30.6423C20.9522 30.5585 21.198 30.4457 21.4164 30.3039C21.6416 30.1557 21.8362 29.9913 22 29.8108V31.1644C21.6997 31.3965 21.3754 31.5737 21.0273 31.6962C20.6792 31.8187 20.2423 31.8799 19.7167 31.8799C19.1911 31.8799 18.6997 31.7961 18.2423 31.6285C17.7918 31.4609 17.3993 31.2192 17.0649 30.9034C16.7304 30.5875 16.4676 30.2169 16.2765 29.7915C16.0922 29.3596 16 28.8891 16 28.3799C16 27.8707 16.0922 27.4034 16.2765 26.978C16.4676 26.5461 16.7304 26.1722 17.0649 25.8564C17.3993 25.5406 17.7918 25.2989 18.2423 25.1313C18.6997 24.9637 19.1911 24.8799 19.7167 24.8799C20.2423 24.8799 20.6792 24.9411 21.0273 25.0636C21.3754 25.1861 21.6997 25.3633 22 25.5954V26.9489C21.8362 26.7685 21.6416 26.6073 21.4164 26.4655C21.198 26.3173 20.9522 26.2013 20.6792 26.1175C20.4061 26.0337 20.099 25.9918 19.7577 25.9918C19.3208 25.9918 18.9147 26.0917 18.5392 26.2915C18.1707 26.4849 17.8703 26.762 17.6382 27.123C17.413 27.4775 17.3003 27.8965 17.3003 28.3799Z" fill="#36A18B"/>
<path d="M24.6997 25.3799C24.6997 25.8569 24.587 26.2758 24.3618 26.6368C24.1297 26.9977 23.8293 27.2781 23.4607 27.478C23.0853 27.6713 22.6792 27.768 22.2423 27.768C21.901 27.768 21.5939 27.7261 21.3208 27.6423C21.0478 27.5585 20.802 27.4457 20.5836 27.3039C20.3584 27.1557 20.1638 26.9913 20 26.8108V28.1644C20.3003 28.3965 20.6246 28.5737 20.9727 28.6962C21.3208 28.8186 21.7577 28.8799 22.2833 28.8799C22.8089 28.8799 23.3003 28.7961 23.7577 28.6285C24.2082 28.4609 24.6007 28.2192 24.9352 27.9034C25.2696 27.5875 25.5324 27.2169 25.7235 26.7915C25.9078 26.3596 26 25.8891 26 25.3799C26 24.8707 25.9078 24.4034 25.7235 23.9779C25.5324 23.5461 25.2696 23.1722 24.9352 22.8564C24.6007 22.5406 24.2082 22.2988 23.7577 22.1313C23.3003 21.9637 22.8089 21.8799 22.2833 21.8799C21.7577 21.8799 21.3208 21.9411 20.9727 22.0636C20.6246 22.1861 20.3003 22.3633 20 22.5953V23.9489C20.1638 23.7685 20.3584 23.6073 20.5836 23.4655C20.802 23.3173 21.0478 23.2012 21.3208 23.1174C21.5939 23.0337 21.901 22.9918 22.2423 22.9918C22.6792 22.9918 23.0853 23.0917 23.4607 23.2915C23.8293 23.4849 24.1297 23.762 24.3618 24.123C24.587 24.4775 24.6997 24.8965 24.6997 25.3799Z" fill="#36A18B"/>
<path d="M11.1342 25.6798C11.1342 26.9517 11.4345 28.069 12.0352 29.0315C12.6541 29.9941 13.455 30.7418 14.438 31.2746C15.4391 31.7903 16.5221 32.0481 17.6871 32.0481C18.5972 32.0481 19.4163 31.9364 20.1444 31.7129C20.8725 31.4895 21.5279 31.1887 22.1103 30.8105C22.711 30.4152 23.2298 29.9769 23.6666 29.4956V33.1052C22.8657 33.7241 22.0011 34.1966 21.0728 34.5233C20.1444 34.85 18.9795 35.0132 17.5779 35.0132C16.1763 35.0132 14.8657 34.7897 13.6461 34.3428C12.4448 33.8958 11.3981 33.2513 10.5062 32.409C9.61428 31.5668 8.91351 30.5785 8.40383 29.4441C7.91236 28.2924 7.66663 27.0377 7.66663 25.6798C7.66663 24.3219 7.91236 23.0757 8.40383 21.9413C8.91351 20.7897 9.61428 19.7927 10.5062 18.9505C11.3981 18.1082 12.4448 17.4637 13.6461 17.0168C14.8657 16.5699 16.1763 16.3464 17.5779 16.3464C18.9795 16.3464 20.1444 16.5097 21.0728 16.8363C22.0011 17.1629 22.8657 17.6356 23.6666 18.2544V21.8639C23.2298 21.3826 22.711 20.953 22.1103 20.5748C21.5279 20.1795 20.8725 19.8701 20.1444 19.6466C19.4163 19.4232 18.5972 19.3114 17.6871 19.3114C16.5221 19.3114 15.4391 19.5779 14.438 20.1107C13.455 20.6264 12.6541 21.3655 12.0352 22.328C11.4345 23.2734 11.1342 24.3906 11.1342 25.6798Z" fill="white"/>
<path d="M30.8658 17.6798C30.8658 18.9517 30.5655 20.069 29.9648 21.0315C29.3459 21.9941 28.545 22.7418 27.562 23.2746C26.5609 23.7903 25.4779 24.0481 24.3129 24.0481C23.4028 24.0481 22.5837 23.9364 21.8556 23.7129C21.1275 23.4895 20.4721 23.1887 19.8897 22.8105C19.289 22.4152 18.7702 21.9769 18.3334 21.4956V25.1052C19.1343 25.724 19.9989 26.1966 20.9272 26.5232C21.8556 26.8498 23.0205 27.0131 24.4221 27.0131C25.8237 27.0131 27.1343 26.7897 28.3539 26.3427C29.5552 25.8959 30.6019 25.2513 31.4938 24.409C32.3856 23.5668 33.0864 22.5785 33.596 21.4441C34.0875 20.2924 34.3334 19.0377 34.3334 17.6798C34.3334 16.3219 34.0875 15.0757 33.596 13.9413C33.0864 12.7897 32.3856 11.7927 31.4938 10.9505C30.6019 10.1082 29.5552 9.46368 28.3539 9.01677C27.1343 8.56988 25.8237 8.34644 24.4221 8.34644C23.0205 8.34644 21.8556 8.50972 20.9272 8.83629C19.9989 9.16291 19.1343 9.63557 18.3334 10.2543V13.8639C18.7702 13.3826 19.289 12.953 19.8897 12.5748C20.4721 12.1795 21.1275 11.8701 21.8556 11.6466C22.5837 11.4232 23.4028 11.3114 24.3129 11.3114C25.4779 11.3114 26.5609 11.5779 27.562 12.1107C28.545 12.6264 29.3459 13.3655 29.9648 14.328C30.5655 15.2734 30.8658 16.3906 30.8658 17.6798Z" fill="white"/>
<path d="M70.3274 18.7109H66.2834C66.2095 18.1877 66.0587 17.723 65.831 17.3168C65.6032 16.9044 65.3108 16.5535 64.9538 16.2642C64.5968 15.9749 64.1844 15.7533 63.7166 15.5994C63.255 15.4455 62.7533 15.3686 62.2116 15.3686C61.233 15.3686 60.3804 15.6117 59.6541 16.098C58.9278 16.5781 58.3646 17.2798 57.9645 18.2031C57.5644 19.1203 57.3643 20.2344 57.3643 21.5455C57.3643 22.8935 57.5644 24.026 57.9645 24.9432C58.3707 25.8603 58.937 26.5528 59.6634 27.0206C60.3897 27.4884 61.2299 27.7223 62.1839 27.7223C62.7195 27.7223 63.215 27.6515 63.6705 27.5099C64.1321 27.3684 64.5414 27.1622 64.8984 26.8913C65.2554 26.6143 65.5509 26.2789 65.7848 25.8849C66.0249 25.491 66.1911 25.0417 66.2834 24.5369L70.3274 24.5554C70.2228 25.4233 69.9612 26.2604 69.5426 27.0668C69.1302 27.867 68.5732 28.584 67.8714 29.218C67.1759 29.8459 66.3449 30.3445 65.3786 30.7138C64.4183 31.0769 63.3319 31.2585 62.1193 31.2585C60.4328 31.2585 58.9247 30.8769 57.5952 30.1136C56.2718 29.3504 55.2254 28.2455 54.456 26.799C53.6927 25.3525 53.3111 23.6013 53.3111 21.5455C53.3111 19.4834 53.6989 17.7292 54.4744 16.2827C55.25 14.8362 56.3026 13.7344 57.6321 12.9773C58.9616 12.214 60.4574 11.8324 62.1193 11.8324C63.215 11.8324 64.2306 11.9863 65.1662 12.294C66.108 12.6018 66.942 13.0511 67.6683 13.642C68.3946 14.2268 68.9856 14.9439 69.4411 15.7933C69.9027 16.6428 70.1982 17.6153 70.3274 18.7109ZM76.6444 31.2678C75.7396 31.2678 74.9332 31.1108 74.2254 30.7969C73.5175 30.4768 72.9574 30.0059 72.545 29.3842C72.1387 28.7564 71.9356 27.9747 71.9356 27.0391C71.9356 26.2512 72.0803 25.5895 72.3696 25.054C72.6589 24.5185 73.0528 24.0876 73.5514 23.7614C74.05 23.4351 74.6162 23.1889 75.2502 23.0227C75.8904 22.8565 76.5613 22.7396 77.263 22.6719C78.0878 22.5857 78.7526 22.5057 79.2573 22.4318C79.7621 22.3518 80.1283 22.2348 80.3561 22.081C80.5838 21.9271 80.6977 21.6993 80.6977 21.3977V21.3423C80.6977 20.7576 80.513 20.3052 80.1437 19.9851C79.7805 19.665 79.2635 19.505 78.5926 19.505C77.8847 19.505 77.3215 19.6619 76.9029 19.9759C76.4844 20.2836 76.2074 20.6714 76.072 21.1392L72.4342 20.8438C72.6188 19.982 72.982 19.2372 73.5237 18.6094C74.0653 17.9754 74.764 17.4891 75.6196 17.1506C76.4813 16.8059 77.4785 16.6335 78.611 16.6335C79.3989 16.6335 80.1529 16.7259 80.8731 16.9105C81.5994 17.0952 82.2427 17.3814 82.8028 17.7692C83.3691 18.157 83.8153 18.6555 84.1416 19.2649C84.4678 19.8681 84.6309 20.5914 84.6309 21.4347V31H80.9008V29.0334H80.79C80.5623 29.4766 80.2576 29.8674 79.876 30.206C79.4943 30.5384 79.0358 30.8 78.5002 30.9908C77.9647 31.1754 77.3461 31.2678 76.6444 31.2678ZM77.7708 28.5533C78.3494 28.5533 78.8603 28.4394 79.3035 28.2116C79.7467 27.9777 80.0945 27.6638 80.3468 27.2699C80.5992 26.8759 80.7254 26.4297 80.7254 25.9311V24.4261C80.6023 24.5062 80.433 24.58 80.2176 24.6477C80.0083 24.7093 79.7713 24.7678 79.5066 24.8232C79.242 24.8724 78.9773 24.9186 78.7126 24.9616C78.4479 24.9986 78.2079 25.0324 77.9924 25.0632C77.5308 25.1309 77.1276 25.2386 76.7829 25.3864C76.4382 25.5341 76.1705 25.7341 75.9796 25.9865C75.7888 26.2327 75.6934 26.5405 75.6934 26.9098C75.6934 27.4453 75.8873 27.8546 76.2751 28.1378C76.669 28.4148 77.1676 28.5533 77.7708 28.5533ZM98.9621 20.8622L95.3613 21.0838C95.2997 20.776 95.1674 20.4991 94.9643 20.2528C94.7611 20.0005 94.4934 19.8004 94.161 19.6527C93.8348 19.4988 93.4439 19.4219 92.9884 19.4219C92.379 19.4219 91.8651 19.5511 91.4465 19.8097C91.0279 20.062 90.8187 20.4006 90.8187 20.8253C90.8187 21.1638 90.9541 21.45 91.2249 21.6839C91.4957 21.9179 91.9605 22.1056 92.6191 22.2472L95.1859 22.7642C96.5646 23.0473 97.5926 23.5028 98.2697 24.1307C98.9467 24.7585 99.2853 25.5833 99.2853 26.6051C99.2853 27.5346 99.0114 28.3501 98.4636 29.0518C97.9219 29.7536 97.1771 30.3014 96.2292 30.6953C95.2874 31.0831 94.201 31.277 92.9699 31.277C91.0926 31.277 89.5968 30.8861 88.4827 30.1044C87.3748 29.3165 86.7254 28.2455 86.5346 26.8913L90.4032 26.6882C90.5201 27.2607 90.8033 27.6977 91.2526 27.9993C91.702 28.2947 92.2775 28.4425 92.9792 28.4425C93.6686 28.4425 94.2225 28.3101 94.6411 28.0455C95.0658 27.7746 95.2813 27.4268 95.2874 27.0021C95.2813 26.6451 95.1305 26.3527 94.835 26.125C94.5395 25.8911 94.0841 25.7126 93.4685 25.5895L91.0126 25.1001C89.6276 24.8232 88.5966 24.343 87.9195 23.6598C87.2486 22.9766 86.9131 22.1056 86.9131 21.0469C86.9131 20.1359 87.1593 19.3511 87.6518 18.6925C88.1503 18.0339 88.849 17.526 89.7476 17.169C90.6525 16.812 91.7112 16.6335 92.9238 16.6335C94.715 16.6335 96.1245 17.0121 97.1525 17.7692C98.1866 18.5263 98.7898 19.5573 98.9621 20.8622ZM105.175 22.8011V31H101.242V12.0909H105.064V19.3203H105.231C105.551 18.4832 106.068 17.8277 106.782 17.3537C107.496 16.8736 108.391 16.6335 109.469 16.6335C110.453 16.6335 111.312 16.849 112.045 17.2798C112.783 17.7045 113.356 18.317 113.762 19.1172C114.174 19.9112 114.377 20.8622 114.371 21.9702V31H110.438V22.6719C110.444 21.7978 110.223 21.1177 109.773 20.6314C109.33 20.1451 108.708 19.902 107.908 19.902C107.373 19.902 106.899 20.0159 106.486 20.2436C106.08 20.4714 105.76 20.8037 105.526 21.2408C105.298 21.6716 105.181 22.1918 105.175 22.8011ZM116.947 31V16.8182H120.88V31H116.947ZM118.922 14.9901C118.338 14.9901 117.836 14.7962 117.418 14.4084C117.005 14.0144 116.799 13.5436 116.799 12.9957C116.799 12.4541 117.005 11.9893 117.418 11.6016C117.836 11.2076 118.338 11.0107 118.922 11.0107C119.507 11.0107 120.006 11.2076 120.418 11.6016C120.837 11.9893 121.046 12.4541 121.046 12.9957C121.046 13.5436 120.837 14.0144 120.418 14.4084C120.006 14.7962 119.507 14.9901 118.922 14.9901ZM129.974 31.277C128.515 31.277 127.259 30.9815 126.207 30.3906C125.16 29.7936 124.354 28.9503 123.788 27.8608C123.221 26.7652 122.938 25.4695 122.938 23.9737C122.938 22.5149 123.221 21.2346 123.788 20.1328C124.354 19.031 125.151 18.1723 126.179 17.5568C127.213 16.9413 128.426 16.6335 129.817 16.6335C130.752 16.6335 131.623 16.7843 132.43 17.0859C133.242 17.3814 133.95 17.8277 134.553 18.4247C135.163 19.0218 135.637 19.7727 135.975 20.6776C136.314 21.5762 136.483 22.6288 136.483 23.8352V24.9155H124.508V22.478H132.781C132.781 21.9117 132.657 21.41 132.411 20.973C132.165 20.536 131.823 20.1944 131.386 19.9482C130.955 19.6958 130.454 19.5696 129.881 19.5696C129.284 19.5696 128.755 19.7081 128.293 19.9851C127.838 20.2559 127.481 20.6222 127.222 21.0838C126.964 21.5393 126.831 22.0471 126.825 22.6072V24.9247C126.825 25.6264 126.955 26.2327 127.213 26.7436C127.478 27.2545 127.85 27.6484 128.33 27.9254C128.81 28.2024 129.38 28.3409 130.038 28.3409C130.475 28.3409 130.875 28.2794 131.239 28.1562C131.602 28.0331 131.913 27.8485 132.171 27.6023C132.43 27.3561 132.627 27.0545 132.762 26.6974L136.4 26.9375C136.215 27.8116 135.837 28.5748 135.264 29.2273C134.698 29.8736 133.965 30.3783 133.067 30.7415C132.174 31.0985 131.143 31.277 129.974 31.277ZM138.53 31V16.8182H142.343V19.2926H142.491C142.749 18.4124 143.183 17.7476 143.792 17.2983C144.402 16.8428 145.104 16.6151 145.898 16.6151C146.095 16.6151 146.307 16.6274 146.535 16.652C146.762 16.6766 146.962 16.7105 147.135 16.7536V20.2436C146.95 20.1882 146.695 20.139 146.368 20.0959C146.042 20.0528 145.744 20.0312 145.473 20.0312C144.894 20.0312 144.377 20.1574 143.922 20.4098C143.472 20.656 143.115 21.0007 142.851 21.4439C142.592 21.8871 142.463 22.398 142.463 22.9766V31H138.53Z" fill="#36A18B"/>
</svg>
