<svg width="18" height="18" viewBox="0 0 18 18" fill="none" xmlns="http://www.w3.org/2000/svg">
<g clip-path="url(#clip0_5146_39725)">
<path fill-rule="evenodd" clip-rule="evenodd" d="M4.87765 16.4463C4.61695 16.342 4.38813 16.2371 4.19125 16.1382C3.80035 16.8034 3.07728 17.25 2.24995 17.25C1.00728 17.25 -4.57764e-05 16.2426 -4.57764e-05 15V10.5C-4.57764e-05 9.25732 1.00728 8.25 2.24995 8.25C3.30138 8.25 4.18435 8.9712 4.43118 9.9459C4.64553 10.021 4.86175 10.0912 5.08098 10.1538C5.71548 10.3351 6.47973 10.4999 7.12495 10.4999C8.0809 10.4999 9.79345 10.1515 10.7847 9.9273C11.5362 9.75735 12.3081 10.1778 12.5561 10.9216L12.8526 11.8112C13.6839 11.5012 14.6904 10.9982 15.3928 10.6256C16.1785 10.2088 17.1772 10.5487 17.5164 11.3967L17.753 11.9881C17.9841 12.566 17.8382 13.2491 17.3318 13.6663C16.7527 14.1436 15.6064 15.0283 14.2017 15.7972C12.8106 16.5587 11.0882 17.2499 9.37495 17.2499C7.39743 17.2499 5.8969 16.854 4.87765 16.4463ZM2.99995 15C2.99995 15.4142 2.66418 15.75 2.24995 15.75C1.83573 15.75 1.49995 15.4142 1.49995 15V10.5C1.49995 10.0858 1.83573 9.75 2.24995 9.75C2.66418 9.75 2.99995 10.0858 2.99995 10.5V15ZM7.12495 11.9999C8.27883 11.9999 10.1599 11.6065 11.1156 11.3904C11.1156 11.3904 11.3663 12.0958 11.403 12.2059L8.51508 12.9582C8.16865 13.0484 7.97095 13.4129 8.08413 13.7525C8.17983 14.0396 8.46805 14.2152 8.7664 14.1649C9.68223 14.0104 11.5857 13.6724 12.5561 13.3774C13.863 12.9799 15.2168 12.4169 16.0957 11.9507C16.0957 11.9507 16.3279 12.4642 16.3537 12.5287C15.8072 12.9773 14.754 13.7849 13.4815 14.4814C12.1763 15.1958 10.7179 15.7499 9.37495 15.7499C6.7327 15.7499 5.11735 14.9666 4.49995 14.5988V11.5467C5.34888 11.8004 6.23508 11.9999 7.12495 11.9999Z" fill="#36A18B"/>
<path d="M8.99999 0.75C9.41422 0.75 9.74999 1.08579 9.74999 1.5V5.68923L10.7197 4.71958C11.0125 4.4268 11.4874 4.4268 11.7803 4.71958C12.0732 5.01256 12.0732 5.48734 11.7803 5.78032L9.53099 8.02973C9.23827 8.32237 8.76382 8.3226 8.47087 8.03025L6.22124 5.78526C5.92837 5.49248 5.92837 5.0175 6.22124 4.72472C6.51412 4.43174 6.98902 4.43174 7.28189 4.72472L8.24999 5.69276V1.5C8.24999 1.08579 8.58577 0.75 8.99999 0.75Z" fill="#36A18B"/>
</g>
<defs>
<clipPath id="clip0_5146_39725">
<rect width="18" height="18" fill="white" transform="matrix(-1 0 0 1 18 0)"/>
</clipPath>
</defs>
</svg>
