<svg width="20" height="20" viewBox="0 0 20 20" fill="none" xmlns="http://www.w3.org/2000/svg">
<rect x="20" width="20" height="20" rx="10" transform="rotate(90 20 0)" fill="#36A18B"/>
<g clip-path="url(#clip0_2475_12107)">
<path d="M8.23847 13.0378C8.23847 13.2649 8.29211 13.4644 8.39937 13.6363C8.50989 13.8082 8.65291 13.9417 8.82843 14.0368C9.00721 14.1289 9.20061 14.175 9.40863 14.175C9.57115 14.175 9.71742 14.155 9.84744 14.1151C9.97746 14.0752 10.0945 14.0215 10.1985 13.954C10.3058 13.8834 10.3984 13.8051 10.4764 13.7192V14.3637C10.3334 14.4742 10.179 14.5586 10.0132 14.617C9.84744 14.6753 9.63942 14.7044 9.38913 14.7044C9.13885 14.7044 8.90482 14.6645 8.68703 14.5847C8.47251 14.5049 8.28561 14.3898 8.12633 14.2394C7.96706 14.089 7.84192 13.9125 7.75091 13.71C7.66314 13.5043 7.61926 13.2802 7.61926 13.0378C7.61926 12.7953 7.66314 12.5728 7.75091 12.3702C7.84192 12.1645 7.96706 11.9865 8.12633 11.8361C8.28561 11.6857 8.47251 11.5706 8.68703 11.4908C8.90482 11.411 9.13885 11.3711 9.38913 11.3711C9.63942 11.3711 9.84744 11.4003 10.0132 11.4586C10.179 11.5169 10.3334 11.6013 10.4764 11.7118V12.3564C10.3984 12.2704 10.3058 12.1937 10.1985 12.1262C10.0945 12.0556 9.97746 12.0003 9.84744 11.9604C9.71742 11.9205 9.57115 11.9006 9.40863 11.9006C9.20061 11.9006 9.00721 11.9481 8.82843 12.0433C8.65291 12.1354 8.50989 12.2674 8.39937 12.4392C8.29211 12.6081 8.23847 12.8076 8.23847 13.0378Z" fill="#36A18B"/>
<path d="M11.7617 11.6092C11.7617 11.8363 11.7081 12.0358 11.6008 12.2077C11.4903 12.3796 11.3473 12.5131 11.1718 12.6083C10.993 12.7003 10.7996 12.7464 10.5916 12.7464C10.4291 12.7464 10.2828 12.7264 10.1528 12.6865C10.0227 12.6466 9.90573 12.5929 9.80172 12.5254C9.69445 12.4548 9.60181 12.3765 9.5238 12.2906V12.9351C9.66682 13.0456 9.82122 13.13 9.98699 13.1884C10.1528 13.2467 10.3608 13.2758 10.6111 13.2758C10.8614 13.2758 11.0954 13.2359 11.3132 13.1561C11.5277 13.0763 11.7146 12.9612 11.8739 12.8108C12.0331 12.6604 12.1583 12.4839 12.2493 12.2814C12.337 12.0757 12.3809 11.8517 12.3809 11.6092C12.3809 11.3667 12.337 11.1442 12.2493 10.9416C12.1583 10.7359 12.0331 10.5579 11.8739 10.4075C11.7146 10.2571 11.5277 10.142 11.3132 10.0622C11.0954 9.98241 10.8614 9.9425 10.6111 9.9425C10.3608 9.9425 10.1528 9.97166 9.98699 10.03C9.82122 10.0883 9.66682 10.1727 9.5238 10.2832V10.9278C9.60181 10.8418 9.69445 10.7651 9.80172 10.6976C9.90573 10.627 10.0227 10.5717 10.1528 10.5318C10.2828 10.4919 10.4291 10.472 10.5916 10.472C10.7996 10.472 10.993 10.5195 11.1718 10.6147C11.3473 10.7068 11.4903 10.8388 11.6008 11.0106C11.7081 11.1795 11.7617 11.379 11.7617 11.6092Z" fill="#36A18B"/>
</g>
<path d="M5.30101 11.7524C5.30101 12.3581 5.44403 12.8901 5.73007 13.3485C6.02478 13.8069 6.40616 14.1629 6.87422 14.4166C7.35096 14.6622 7.86669 14.785 8.42144 14.785C8.85482 14.785 9.24488 14.7318 9.5916 14.6254C9.93831 14.519 10.2504 14.3757 10.5277 14.1957C10.8138 14.0074 11.0608 13.7987 11.2688 13.5695V15.2883C10.8874 15.5831 10.4757 15.8081 10.0337 15.9636C9.5916 16.1192 9.03685 16.1969 8.36942 16.1969C7.70201 16.1969 7.07792 16.0905 6.49717 15.8777C5.92509 15.6648 5.42669 15.3579 5.00197 14.9568C4.57723 14.5558 4.24353 14.0852 4.00083 13.5449C3.7668 12.9965 3.64978 12.399 3.64978 11.7524C3.64978 11.1058 3.7668 10.5124 4.00083 9.9722C4.24353 9.42381 4.57723 8.94908 5.00197 8.54801C5.42669 8.14694 5.92509 7.84001 6.49717 7.6272C7.07792 7.4144 7.70201 7.30798 8.36942 7.30798C9.03685 7.30798 9.5916 7.38575 10.0337 7.54125C10.4757 7.69678 10.8874 7.92186 11.2688 8.21652V9.93536C11.0608 9.70618 10.8138 9.50157 10.5277 9.32149C10.2504 9.13324 9.93831 8.98591 9.5916 8.8795C9.24488 8.7731 8.85482 8.71989 8.42144 8.71989C7.86669 8.71989 7.35096 8.84676 6.87422 9.1005C6.40616 9.34605 6.02478 9.698 5.73007 10.1564C5.44403 10.6065 5.30101 11.1386 5.30101 11.7524Z" fill="white"/>
<path d="M14.6971 7.94285C14.6971 8.54854 14.554 9.08057 14.268 9.53893C13.9733 9.99728 13.5919 10.3533 13.1239 10.6071C12.6471 10.8526 12.1314 10.9754 11.5766 10.9754C11.1433 10.9754 10.7532 10.9222 10.4065 10.8158C10.0598 10.7094 9.74771 10.5661 9.47035 10.3861C9.18431 10.1978 8.93727 9.9891 8.72925 9.75992V11.4788C9.11063 11.7734 9.52235 11.9985 9.96442 12.154C10.4065 12.3095 10.9612 12.3873 11.6287 12.3873C12.2961 12.3873 12.9202 12.2809 13.5009 12.0681C14.073 11.8553 14.5714 11.5483 14.9961 11.1473C15.4208 10.7462 15.7545 10.2756 15.9972 9.73538C16.2312 9.18697 16.3483 8.58947 16.3483 7.94285C16.3483 7.29624 16.2312 6.70283 15.9972 6.16263C15.7545 5.61423 15.4208 5.1395 14.9961 4.73843C14.5714 4.33737 14.073 4.03043 13.5009 3.81762C12.9202 3.60482 12.2961 3.49841 11.6287 3.49841C10.9612 3.49841 10.4065 3.57617 9.96442 3.73168C9.52235 3.88721 9.11063 4.11229 8.72925 4.40694V6.12579C8.93727 5.89661 9.18431 5.692 9.47035 5.51192C9.74771 5.32367 10.0598 5.17634 10.4065 5.06993C10.7532 4.96353 11.1433 4.91032 11.5766 4.91032C12.1314 4.91032 12.6471 5.03719 13.1239 5.29093C13.5919 5.53648 13.9733 5.88843 14.268 6.34679C14.554 6.79696 14.6971 7.32899 14.6971 7.94285Z" fill="white"/>
<defs>
<clipPath id="clip0_2475_12107">
<rect width="5.71429" height="5.71429" fill="white" transform="translate(7.14282 9.52368)"/>
</clipPath>
</defs>
</svg>
