<svg width="14" height="24" viewBox="0 0 14 24" fill="none" xmlns="http://www.w3.org/2000/svg">
<g clip-path="url(#clip0_4008_36598)">
<path d="M12.25 14C12.2498 13.7954 12.1958 13.5945 12.0934 13.4174C11.991 13.2402 11.8438 13.0932 11.6667 12.9909L7.58333 10.6575C7.40598 10.5551 7.20479 10.5012 7 10.5012C6.79521 10.5012 6.59402 10.5551 6.41667 10.6575L2.33333 12.9909C2.15615 13.0932 2.00899 13.2402 1.9066 13.4174C1.80422 13.5945 1.75021 13.7954 1.75 14V18.6667C1.75021 18.8713 1.80422 19.0722 1.9066 19.2493C2.00899 19.4265 2.15615 19.5736 2.33333 19.6759L6.41667 22.0092C6.59402 22.1116 6.79521 22.1655 7 22.1655C7.20479 22.1655 7.40598 22.1116 7.58333 22.0092L11.6667 19.6759C11.8438 19.5736 11.991 19.4265 12.0934 19.2493C12.1958 19.0722 12.2498 18.8713 12.25 18.6667V14Z" stroke="#36A18B" stroke-width="1.16667" stroke-linecap="round" stroke-linejoin="round"/>
<path d="M1.92493 13.4167L6.99993 16.3334L12.0749 13.4167" stroke="#36A18B" stroke-width="1.16667" stroke-linecap="round" stroke-linejoin="round"/>
<path d="M7 22.1666V16.3333" stroke="#36A18B" stroke-width="1.16667" stroke-linecap="round" stroke-linejoin="round"/>
</g>
<g clip-path="url(#clip1_4008_36598)">
<path d="M4.87867 7.00008C5.58567 6.29308 6.29277 5.93958 6.99996 5.93958C7.70715 5.93958 8.41425 6.29308 9.12125 7.00008C9.94628 6.29308 10.5649 5.93958 10.9771 5.93958C11.3897 5.93958 12.0085 6.29308 12.8333 7.00008C12.8333 3.77833 10.2217 1.16675 6.99996 1.16675C3.77821 1.16675 1.16663 3.77833 1.16663 7.00008C1.99165 6.29308 2.61038 5.93958 3.02279 5.93958C3.43521 5.93958 4.05383 6.29308 4.87867 7.00008Z" stroke="#36A18B" stroke-width="1.16667" stroke-linejoin="round"/>
<path d="M1.16675 7L7.00008 12.8333M7.00008 12.8333L4.87879 7M7.00008 12.8333L9.12137 7M7.00008 12.8333L12.8334 7" stroke="#36A18B" stroke-width="1.16667" stroke-linecap="round" stroke-linejoin="round"/>
</g>
<defs>
<clipPath id="clip0_4008_36598">
<rect width="14" height="14" fill="white" transform="translate(0 9.33325)"/>
</clipPath>
<clipPath id="clip1_4008_36598">
<rect width="14" height="14" fill="white"/>
</clipPath>
</defs>
</svg>
