<svg width="15" height="20" viewBox="0 0 15 20" fill="none" xmlns="http://www.w3.org/2000/svg">
<rect x="1.76875" y="1.76875" width="11.4625" height="2.7125" rx="1.35625" stroke="#36A18B" stroke-width="1.4625"/>
<path d="M4.30762 4.48145H10.6924C10.8828 4.48145 11.0717 4.51413 11.25 4.57812L11.4248 4.65234L13.3516 5.60645C13.9134 5.88481 14.2686 6.45792 14.2686 7.08496V17.6191C14.2685 18.5302 13.5302 19.2685 12.6191 19.2686H2.38086C1.46983 19.2685 0.731496 18.5302 0.731445 17.6191V7.08496C0.731445 6.49702 1.04375 5.95667 1.5459 5.66211L1.64844 5.60645L3.5752 4.65234C3.80275 4.53968 4.05369 4.48145 4.30762 4.48145Z" stroke="#36A18B" stroke-width="1.4625"/>
<g clip-path="url(#clip0_4008_36607)">
<path d="M8.87321 13.5627C10.0141 13.4099 10.894 12.4328 10.894 11.2501C10.894 9.96142 9.84929 8.91675 8.56063 8.91675C7.37796 8.91675 6.40079 9.79664 6.24805 10.9375M8.89396 13.2501C8.89396 14.5387 7.84929 15.5834 6.56063 15.5834C5.27196 15.5834 4.22729 14.5387 4.22729 13.2501C4.22729 11.9614 5.27196 10.9167 6.56063 10.9167C7.84929 10.9167 8.89396 11.9614 8.89396 13.2501Z" stroke="#36A18B" stroke-width="1.2" stroke-linecap="round" stroke-linejoin="round"/>
</g>
<defs>
<clipPath id="clip0_4008_36607">
<rect width="8" height="8" fill="white" transform="translate(3.5 8.25)"/>
</clipPath>
</defs>
</svg>
