<svg width="18" height="19" viewBox="0 0 18 19" fill="none" xmlns="http://www.w3.org/2000/svg">
<g clip-path="url(#clip0_4008_32065)">
<g clip-path="url(#clip1_4008_32065)">
<path d="M11.3734 5.31266C12.5143 5.15992 13.3942 4.18275 13.3942 3.00008C13.3942 1.71142 12.3495 0.666748 11.0609 0.666748C9.8782 0.666748 8.90104 1.54664 8.74829 2.6875M11.3942 5.00008C11.3942 6.28875 10.3495 7.33342 9.06087 7.33342C7.77221 7.33342 6.72754 6.28875 6.72754 5.00008C6.72754 3.71142 7.77221 2.66675 9.06087 2.66675C10.3495 2.66675 11.3942 3.71142 11.3942 5.00008Z" stroke="#36A18B" stroke-width="1.2" stroke-linecap="round" stroke-linejoin="round"/>
</g>
<path d="M6 17.125C6 17.3321 5.83211 17.5 5.625 17.5C5.41789 17.5 5.25 17.3321 5.25 17.125C5.25 16.9179 5.41789 16.75 5.625 16.75C5.83211 16.75 6 16.9179 6 17.125Z" fill="#E8F2EE"/>
<path d="M12.75 17.125C12.75 17.3321 12.5821 17.5 12.375 17.5C12.1679 17.5 12 17.3321 12 17.125C12 16.9179 12.1679 16.75 12.375 16.75C12.5821 16.75 12.75 16.9179 12.75 17.125Z" fill="#E8F2EE"/>
<path d="M3.7501 11.5H13.6019C14.3615 11.5 14.7413 11.5 15.0437 11.3584C15.31 11.2336 15.5338 11.0333 15.6872 10.7824C15.8614 10.4975 15.9033 10.12 15.9872 9.36504L16.426 5.41626C16.4516 5.18566 16.4644 5.07036 16.4273 4.98112C16.3948 4.90274 16.3366 4.83773 16.2623 4.79671C16.1777 4.75 16.0617 4.75 15.8296 4.75H3.3751M1.5 2.5H2.43633C2.6348 2.5 2.73403 2.5 2.81167 2.53774C2.88001 2.57097 2.93665 2.62418 2.97408 2.69032C3.01659 2.76545 3.02278 2.86449 3.03516 3.06257L3.71484 13.9374C3.72722 14.1355 3.73341 14.2345 3.77592 14.3097C3.81335 14.3758 3.86999 14.429 3.93833 14.4623C4.01597 14.5 4.1152 14.5 4.31367 14.5H14.25M5.625 17.125H5.6325M12.375 17.125H12.3825M6 17.125C6 17.3321 5.83211 17.5 5.625 17.5C5.41789 17.5 5.25 17.3321 5.25 17.125C5.25 16.9179 5.41789 16.75 5.625 16.75C5.83211 16.75 6 16.9179 6 17.125ZM12.75 17.125C12.75 17.3321 12.5821 17.5 12.375 17.5C12.1679 17.5 12 17.3321 12 17.125C12 16.9179 12.1679 16.75 12.375 16.75C12.5821 16.75 12.75 16.9179 12.75 17.125Z" stroke="#36A18B" stroke-width="1.5" stroke-linecap="round" stroke-linejoin="round"/>
</g>
<defs>
<clipPath id="clip0_4008_32065">
<rect width="18" height="19" fill="white"/>
</clipPath>
<clipPath id="clip1_4008_32065">
<rect width="10" height="4" fill="white" transform="translate(5)"/>
</clipPath>
</defs>
</svg>
