<svg width="126" height="126" viewBox="0 0 126 126" fill="none" xmlns="http://www.w3.org/2000/svg">
<path d="M82.2115 10.1293C88.9201 9.48293 95.6369 11.274 101.151 15.1796C106.925 19.3027 111.342 25.7504 112.519 32.8368C112.85 34.8336 113.428 46.4861 112.486 47.6835C111.85 48.4918 110.619 48.7718 109.656 48.8546C108.055 48.9923 100.845 49.1738 99.9706 48.2039C98.5731 46.6535 99.3403 40.8115 99.3695 38.658C99.423 34.7342 98.0076 31.165 95.2746 28.3623C92.3853 25.3999 88.34 23.8618 84.2433 23.8514C80.1639 23.8409 76.5883 25.4358 73.7318 28.3562C69.8313 32.3443 69.5898 36.1169 69.6099 41.4244L69.6281 48.3845C71.4497 48.3637 73.2713 48.356 75.0928 48.3612C78.6809 48.3621 82.2733 48.1564 85.0382 50.8805C86.8896 52.705 87.6139 55.278 87.5889 57.817C87.5387 62.9348 87.5959 68.0587 87.5627 73.1749C87.5415 76.4572 87.658 79.8989 87.4256 83.1578C86.7803 92.1987 83.1241 98.8911 76.9354 105.242C56.4962 125.235 17.3571 115.159 13.3078 85.1927C12.8488 81.7957 13.0377 77.6482 13.0428 74.1746L13.0246 59.3741C13.0081 46.506 22.5188 48.3796 31.7845 48.3821L56.0868 48.4581C56.0253 38.2833 55.1796 29.3478 62.1374 20.9625C67.4774 14.5265 73.9007 10.8941 82.2115 10.1293Z" fill="#239389"/>
<path d="M25.0234 100.189C24.9057 100.06 24.788 99.932 24.6703 99.8038C16.4236 90.2383 17.2225 82.0842 17.2809 70.4286C17.318 66.1976 17.1519 61.9372 17.3085 57.7102C17.4001 55.2402 18.9777 52.7561 21.631 52.6727C25.1926 52.5608 28.7618 52.612 32.3237 52.6212L54.4813 52.723L69.8284 52.6988C72.6974 52.6902 75.723 52.6022 78.5773 52.8288C80.1078 52.9506 81.0137 53.7625 81.94 54.9465C83.3159 57.088 82.8392 61.3402 82.8584 63.8794C82.8952 68.7433 82.7565 73.7124 82.8517 78.5707C83.2931 101.055 62.718 114.233 41.9786 109.563C36.6142 108.33 31.6067 105.86 27.3488 102.348C26.8812 101.966 25.2948 100.638 25.0234 100.189Z" fill="#7CCBBE"/>
<path d="M25.0234 100.189C24.9057 100.06 24.788 99.932 24.6703 99.8038C16.4236 90.2383 17.2225 82.0842 17.2809 70.4286C17.318 66.1976 17.1519 61.9372 17.3085 57.7102C17.4001 55.2402 18.9777 52.7561 21.631 52.6727C25.1926 52.5608 28.7618 52.612 32.3237 52.6212L54.4813 52.723L69.8284 52.6988C72.6974 52.6902 75.723 52.6022 78.5773 52.8288C80.1078 52.9506 81.0137 53.7625 81.94 54.9465C79.9037 55.2798 76.7357 55.1372 74.6224 55.1341C69.5051 55.1252 64.3881 55.0461 59.2729 54.8968C50.1367 54.7085 41.7093 54.8309 32.5866 54.9783L25.784 55.0495C24.0759 55.0633 21.8053 54.8125 20.3874 55.8799C19.9895 56.5548 19.6649 57.7626 19.66 58.5519C19.6089 66.993 19.5593 75.436 19.7324 83.8802C19.8079 87.5705 21.6702 92.3197 22.9196 95.812C23.2734 96.8016 25.0073 99.3289 25.0234 100.189Z" fill="#EFF1F0"/>
<path d="M48.5436 60.9916C50.183 60.8448 51.6389 60.8205 53.2454 61.236C55.9893 61.9578 58.3275 63.7667 59.7292 66.2517C62.8178 71.609 60.4885 77.3477 55.3849 80.3021C56.1141 84.8437 57.6798 89.4819 58.4777 94.042C59.2443 98.4226 55.6304 97.6643 52.6568 97.6121C50.1955 97.5891 46.6293 97.9178 44.3106 97.3521C43.3892 97.1276 42.9962 96.3669 42.6098 95.5678C42.7075 93.9392 43.5912 90.6975 44.0165 89.0106C44.7797 86.0706 45.4952 83.118 46.1629 80.154C45.5107 79.8961 44.8819 79.5818 44.2836 79.2145C42.2755 77.9554 40.861 75.9283 40.3645 73.5978C39.7664 70.7841 40.2872 67.8462 41.8149 65.4155C43.409 62.9228 45.7304 61.6064 48.5436 60.9916Z" fill="#239389"/>
<path d="M61.1219 48.7066C60.1826 48.2322 60.3103 45.0781 60.2589 44.0178C59.8805 36.2123 60.366 28.8147 66.1276 22.937C74.5382 14.3567 86.3617 12.0677 96.8318 18.3044C101.284 20.6409 105.711 26.2631 107.116 31.0709C108.347 35.2856 108.212 40.0275 108.106 44.3998L103.844 44.4026C103.854 41.9253 104.061 38.4302 103.704 36.0433C101.34 20.2303 81.75 13.2617 70.6487 25.3757C63.7332 32.9221 65.3464 39.0803 65.2123 48.5468C63.9173 48.5624 62.3859 48.5379 61.1219 48.7066Z" fill="#7CCBBE"/>
<path d="M61.1219 48.7066C60.1826 48.2322 60.3103 45.0781 60.2589 44.0178C59.8805 36.2123 60.366 28.8147 66.1276 22.937C74.5382 14.3567 86.3617 12.0677 96.8318 18.3044C96.7543 18.3001 96.6767 18.2961 96.5991 18.2921C87.3385 14.7228 78.3724 15.1908 70.4777 21.6811C65.0434 26.1488 62.5937 31.5483 61.8615 38.6409C61.5871 40.8321 61.5347 47.1142 61.1219 48.7066Z" fill="#EFF1F0"/>
</svg>
